<svg width="32" height="32" viewBox="0 0 20 17" fill="none" xmlns="http://www.w3.org/2000/svg">
<g clip-path="url(#clip0)">
<path d="M2.37975 10.9512C3.69404 10.9512 4.75949 9.85384 4.75949 8.50024C4.75949 7.14663 3.69404 6.04932 2.37975 6.04932C1.06545 6.04932 0 7.14663 0 8.50024C0 9.85384 1.06545 10.9512 2.37975 10.9512Z" fill="#520091"/>
<path d="M9.94933 10.9512C11.2636 10.9512 12.3291 9.85384 12.3291 8.50024C12.3291 7.14663 11.2636 6.04932 9.94933 6.04932C8.63503 6.04932 7.56958 7.14663 7.56958 8.50024C7.56958 9.85384 8.63503 10.9512 9.94933 10.9512Z" fill="#520091"/>
<path d="M17.6202 10.9512C18.9345 10.9512 20 9.85384 20 8.50024C20 7.14663 18.9345 6.04932 17.6202 6.04932C16.3059 6.04932 15.2405 7.14663 15.2405 8.50024C15.2405 9.85384 16.3059 10.9512 17.6202 10.9512Z" fill="#520091"/>
<path d="M14.2276 17C15.5419 17 16.6074 15.9027 16.6074 14.5491C16.6074 13.1955 15.5419 12.0981 14.2276 12.0981C12.9133 12.0981 11.8479 13.1955 11.8479 14.5491C11.8479 15.9027 12.9133 17 14.2276 17Z" fill="#520091"/>
<path d="M14.2276 4.90184C15.5419 4.90184 16.6074 3.80453 16.6074 2.45092C16.6074 1.09731 15.5419 0 14.2276 0C12.9133 0 11.8479 1.09731 11.8479 2.45092C11.8479 3.80453 12.9133 4.90184 14.2276 4.90184Z" fill="#520091"/>
<path d="M6.3546 17C7.6689 17 8.73435 15.9027 8.73435 14.5491C8.73435 13.1955 7.6689 12.0981 6.3546 12.0981C5.0403 12.0981 3.97485 13.1955 3.97485 14.5491C3.97485 15.9027 5.0403 17 6.3546 17Z" fill="#520091"/>
<path d="M6.3546 4.90184C7.6689 4.90184 8.73435 3.80453 8.73435 2.45092C8.73435 1.09731 7.6689 0 6.3546 0C5.0403 0 3.97485 1.09731 3.97485 2.45092C3.97485 3.80453 5.0403 4.90184 6.3546 4.90184Z" fill="#520091"/>
</g>
<defs>
<clipPath id="clip0">
<rect width="20" height="17" fill="white"/>
</clipPath>
</defs>
</svg>
