<svg id="eXPjc1zqsRL1" xmlns="http://www.w3.org/2000/svg" xmlns:xlink="http://www.w3.org/1999/xlink" viewBox="0 0 100 100" shape-rendering="geometricPrecision" text-rendering="geometricPrecision">
<g id="eXPjc1zqsRL2">
<path id="eXPjc1zqsRL3" d="M49.999,100C22.42961,100,-0.0005,77.56989,-0.0005,49.9995C-0.0005,22.42911,22.42961,0,49.999,0C77.57038,0,100.00049,22.42912,100.00049,49.9995C100.00049,77.56988,77.57039,100,49.999,100Z" fill="rgb(237,224,208)" stroke="none" stroke-width="1" stroke-miterlimit="1"/><g id="eXPjc1zqsRL4" transform="matrix(-0.999932 0.011652 -0.011652 -0.999932 101.044461 107.965172)" opacity="0">
<path id="eXPjc1zqsRL5" d="M22.02954,41.97709C21.78273,42.88871,21.33687,43.659,20.68998,44.28997C20.0411,44.92093,19.26085,45.34689,18.34526,45.56981C17.43166,45.79075,16.47028,45.76487,15.46312,45.49417C14.45397,45.22148,13.60605,44.7597,12.92732,44.10884C12.24859,43.45996,11.78681,42.69962,11.54198,41.82781C11.29915,40.956,11.29716,40.06429,11.53999,39.15268C11.7669,38.32068,12.14309,37.63001,12.67652,37.08264C13.20796,36.53328,13.81504,36.13719,14.49378,35.88838C15.17451,35.64157,15.85523,35.53607,16.53397,35.5719L16.00651,37.53446C15.65022,37.54242,15.29394,37.62602,14.93964,37.78525C14.58534,37.94449,14.26887,38.18533,13.99618,38.50579C13.72349,38.82625,13.52644,39.2104,13.40502,39.65626C13.25773,40.20761,13.26171,40.75099,13.42293,41.28244C13.58017,41.81189,13.88471,42.27765,14.32658,42.67773C14.77244,43.0798,15.32378,43.36841,15.9866,43.54556C16.64543,43.72271,17.26644,43.75057,17.85362,43.62716C18.4388,43.50375,18.93243,43.25296,19.3345,42.87478C19.74055,42.49262,20.01523,42.02885,20.16252,41.47551C20.34962,40.78682,20.3118,40.16183,20.05106,39.59854C19.79031,39.03525,19.41014,38.60731,18.90458,38.31472L19.43204,36.35216C20.05703,36.65669,20.60838,37.08663,21.0821,37.63997C21.56179,38.19331,21.8942,38.84617,22.08328,39.59258C22.27237,40.33897,22.25446,41.13514,22.02954,41.97709Z" fill="rgb(30,84,54)" stroke="none" stroke-width="1" stroke-miterlimit="1"/>
<path id="eXPjc1zqsRL6" d="M27.86746,30.94018C27.25839,31.65872,26.52591,32.16429,25.67003,32.45888C24.81614,32.75147,23.92841,32.80521,23.00485,32.61612C22.08527,32.42703,21.22541,31.99511,20.42924,31.31836C19.63108,30.64161,19.06381,29.86535,18.72544,28.98757C18.38906,28.10979,18.29352,27.22604,18.4428,26.33234C18.59208,25.44063,18.97225,24.63451,19.58331,23.91397C20.18641,23.2014,20.91491,22.69981,21.77079,22.40523C22.62468,22.11065,23.51241,22.0589,24.43398,22.24799C25.35356,22.43708,26.21541,22.869,27.01158,23.54575C27.80974,24.22249,28.37701,24.99876,28.71539,25.87654C29.05177,26.75432,29.14731,27.64006,28.99803,28.53177C28.84874,29.42347,28.47056,30.22761,27.86746,30.94018ZM26.39454,29.69019C26.75879,29.26026,26.97972,28.7726,27.06531,28.22524C27.14493,27.67588,27.07128,27.12453,26.84437,26.56921C26.61547,26.01388,26.23928,25.51428,25.71779,25.07241C25.1963,24.63054,24.64495,24.34192,24.05578,24.20657C23.47259,24.0752,22.91726,24.09312,22.39178,24.26429C21.86233,24.43547,21.41647,24.73403,21.05421,25.16197C20.68598,25.59986,20.46106,26.0915,20.37547,26.64086C20.29585,27.18823,20.3695,27.73759,20.60238,28.28893C20.83327,28.84227,21.20946,29.33788,21.73095,29.77976C22.25244,30.22164,22.80379,30.51224,23.38698,30.65157C23.97017,30.78891,24.52351,30.771,25.04899,30.60181C25.57847,30.43063,26.02631,30.12609,26.39454,29.69019Z" fill="rgb(30,84,54)" stroke="none" stroke-width="1" stroke-miterlimit="1"/><path id="eXPjc1zqsRL7" d="M33.77902,24.76588L29.81608,14.97497L32.77186,13.77872L37.86337,19.74403L38.14402,19.63058L37.65437,11.80423L40.61215,10.60997L44.57509,20.39889L42.70409,21.15525L39.95929,14.37188L39.68063,14.48533L40.15037,22.18629L38.19776,22.97848L33.1799,17.11469L32.90124,17.22615L35.64803,24.00952L33.77902,24.76588Z" fill="rgb(30,84,54)" stroke="none" stroke-width="1" stroke-miterlimit="1"/><path id="eXPjc1zqsRL8" d="M48.61367,20.24363L49.44766,9.71826L54.21672,10.10042C54.85764,10.15018,55.41496,10.34325,55.89266,10.67764C56.36838,11.01601,56.72665,11.45988,56.96948,12.01322C57.2143,12.56855,57.30785,13.18956,57.25411,13.88223C57.19838,14.58286,57.0073,15.19193,56.67888,15.70546C56.35046,16.21899,55.9265,16.60314,55.40302,16.85991C54.87954,17.11469,54.29833,17.21819,53.65742,17.16644L50.8967,16.9455L50.624,20.40485L48.61367,20.24363ZM53.7211,15.23373C53.98185,15.25562,54.22269,15.20586,54.4496,15.08843C54.67452,14.969,54.85764,14.79385,54.99697,14.56495C55.13431,14.33207,55.21791,14.05739,55.24179,13.73693C55.27961,13.25525,55.1781,12.85517,54.93925,12.53869C54.69443,12.22221,54.37397,12.04705,53.97588,12.01521L51.30672,11.80422L51.05195,15.02075L53.7211,15.23373Z" fill="rgb(30,84,54)" stroke="none" stroke-width="1" stroke-miterlimit="1"/><path id="eXPjc1zqsRL9" d="M59.92725,21.8718L64.71423,12.46106L69.0454,14.67043C69.60869,14.95705,70.04459,15.34319,70.35112,15.83483C70.66163,16.32647,70.82285,16.87184,70.83479,17.47693C70.84673,18.08003,70.70143,18.6891,70.39093,19.29618C70.09834,19.86942,69.71617,20.32324,69.24046,20.65962C68.76873,20.99202,68.25917,21.18509,67.71579,21.23485C67.1724,21.28461,66.66285,21.19106,66.18913,20.94823L65.62584,20.66161L65.82488,20.27149L67.43712,25.69739L65.21182,24.56285L63.84838,19.80573L63.36471,19.56091L61.72261,22.78739L59.92725,21.8718ZM66.6529,19.17079C66.87781,19.28424,67.11468,19.33003,67.36348,19.30415C67.61228,19.27827,67.84715,19.1887,68.06809,19.02947C68.29102,18.87023,68.47016,18.65328,68.61347,18.37462C68.82644,17.95464,68.88019,17.54859,68.77669,17.15648C68.67318,16.76437,68.45026,16.48173,68.1099,16.30856L65.6557,15.05857L64.19871,17.9208L66.6529,19.17079Z" fill="rgb(30,84,54)" stroke="none" stroke-width="1" stroke-miterlimit="1"/>
<path id="eXPjc1zqsRL10" d="M69.63058,27.30566L80.1878,23.57759L82.01501,25.83872L76.15918,35.38679L74.78778,33.68896L79.53494,26.1751L79.34585,25.94222L71.00397,29.00349L69.63058,27.30566ZM73.0143,27.82317L74.41159,26.69659L77.75948,30.84066L76.3622,31.97122L73.0143,27.82317Z" fill="rgb(30,84,54)" stroke="none" stroke-width="1" stroke-miterlimit="1"/>
<path id="eXPjc1zqsRL11" d="M77.2977,38.15547L87.46678,35.31911L88.7745,40.00258C88.94567,40.61364,88.95364,41.19484,88.80236,41.75216C88.6491,42.31147,88.35651,42.80112,87.9206,43.21911C87.48469,43.63909,86.93733,43.93765,86.2785,44.12276C85.65748,44.29593,85.06633,44.31981,84.49906,44.19641C83.93178,44.073,83.44612,43.83017,83.04008,43.46393C82.63603,43.0957,82.36135,42.6578,82.21804,42.14428L82.04885,41.5372L82.46684,41.41778L79.56878,46.27641L78.89601,43.868L81.47361,39.6483L81.32632,39.12482L77.84109,40.10013L77.2977,38.15547ZM83.84222,41.28641C83.90791,41.52725,84.0353,41.73227,84.22438,41.89747C84.40949,42.06467,84.63839,42.17613,84.90511,42.23186C85.16983,42.28759,85.45248,42.27366,85.75303,42.19006C86.20883,42.06267,86.54323,41.8278,86.76218,41.48545C86.97914,41.14509,87.03685,40.79079,86.93335,40.42256L86.19291,37.76932L83.0978,38.63317L83.84222,41.28641Z" fill="rgb(30,84,54)" stroke="none" stroke-width="1" stroke-miterlimit="1"/></g><g id="eXPjc1zqsRL12" transform="matrix(-0.999892 -0.014731 0.014731 -0.999892 97.472612 119.180536)" opacity="0">
<path id="eXPjc1zqsRL13" d="M16.93206,76.01537L27.03347,71.17067L29.09157,73.22081L24.28071,83.34611L22.73614,81.80552L26.66126,73.82391L26.44829,73.61094L18.47663,77.55596L16.93206,76.01537ZM20.3536,76.16664L21.6215,74.89277L25.39137,78.65268L24.12347,79.92655L20.3536,76.16664Z" fill="rgb(30,84,54)" stroke="none" stroke-width="1" stroke-miterlimit="1"/>
<path id="eXPjc1zqsRL14" d="M33.40283,88.56102C32.537,88.18483,31.83836,87.6295,31.30691,86.89304C30.77348,86.15857,30.46496,85.3226,30.38136,84.38511C30.29577,83.44961,30.46297,82.50217,30.88096,81.54079C31.29696,80.5834,31.88214,79.81708,32.63054,79.24185C33.37695,78.66662,34.20298,78.32426,35.10464,78.2128C36.0063,78.09934,36.88607,78.22872,37.73997,78.60093C38.49434,78.92935,39.1054,79.38118,39.57116,79.95641C40.03692,80.53164,40.3534,81.15863,40.51661,81.83139C40.6838,82.50614,40.72361,83.16697,40.64201,83.80988L38.73717,82.98385C38.7312,82.44444,38.56997,81.9329,38.25548,81.44923C37.94099,80.96755,37.51106,80.60728,36.96967,80.37241C36.43623,80.14152,35.89484,80.0639,35.34548,80.14351C34.79612,80.22313,34.29254,80.45004,33.83475,80.82822C33.37496,81.20242,33.00673,81.70998,32.73006,82.34492C32.4514,82.98385,32.33197,83.5969,32.36979,84.19005C32.40761,84.78121,32.58476,85.30469,32.89924,85.76049C33.21572,86.2163,33.63968,86.55865,34.17311,86.78954C34.6528,86.99853,35.12852,87.08213,35.60025,87.04033C36.07198,86.99853,36.48599,86.86915,36.84228,86.6522C37.20056,86.43524,37.4613,86.17449,37.62651,85.87195L37.94498,85.37036L38.13805,86.01327L35.33752,84.79712L35.9227,83.45358L40.08866,85.26487L37.8773,90.34245L36.484,89.73537L36.82834,88.56898L36.76067,88.53912C36.49196,88.67447,36.17947,88.77996,35.82119,88.84764C35.46291,88.9173,35.07279,88.93124,34.65281,88.89143C34.23283,88.85162,33.81684,88.74215,33.40283,88.56102Z" fill="rgb(30,84,54)" stroke="none" stroke-width="1" stroke-miterlimit="1"/>
<path id="eXPjc1zqsRL15" d="M49.71835,91.9965C48.77489,91.98257,47.91901,91.73973,47.14672,91.26602C46.37643,90.79429,45.77333,90.14142,45.33344,89.30943C44.89356,88.47942,44.68257,87.54193,44.6965,86.49496C44.71441,85.44999,44.95326,84.51847,45.41504,83.7004C45.8808,82.88234,46.50579,82.24739,47.28803,81.79556C48.07425,81.34373,48.93809,81.12478,49.88155,81.13872C50.81307,81.15066,51.66497,81.39349,52.43527,81.86721C53.20756,82.34093,53.81065,82.9918,54.25253,83.82181C54.69042,84.65381,54.90141,85.5913,54.88549,86.63627C54.86956,87.68125,54.63071,88.61476,54.16695,89.43282C53.70318,90.25088,53.07819,90.88583,52.29396,91.33766C51.50974,91.78949,50.65186,92.00844,49.71835,91.9965ZM49.74821,90.06578C50.30951,90.07375,50.82901,89.93641,51.30273,89.64979C51.77844,89.36317,52.15861,88.95712,52.44324,88.42966C52.72588,87.89821,52.87516,87.29312,52.88312,86.60842C52.89506,85.9257,52.76568,85.31464,52.49698,84.77723C52.23026,84.24181,51.86402,83.82382,51.39428,83.52725C50.92852,83.22868,50.413,83.07542,49.8517,83.06746C49.28045,83.0595,48.75497,83.19883,48.27926,83.48346C47.80554,83.76809,47.42736,84.17613,47.14671,84.70558C46.86805,85.23305,46.72474,85.84212,46.7128,86.52483C46.70484,87.20953,46.83024,87.81861,47.09496,88.35403C47.35571,88.89144,47.71995,89.30744,48.1877,89.60601C48.65545,89.90458,49.17497,90.05782,49.74821,90.06578Z" fill="rgb(30,84,54)" stroke="none" stroke-width="1" stroke-miterlimit="1"/>
<path id="eXPjc1zqsRL16" d="M61.60319,90.40614L57.74774,80.5814L62.27397,78.80196C62.86313,78.56908,63.44235,78.50141,64.0136,78.59495C64.58286,78.6885,65.09838,78.93333,65.56016,79.32345C66.02194,79.71556,66.37623,80.22909,66.62702,80.86603C66.86189,81.46316,66.94549,82.05033,66.8818,82.62756C66.81612,83.20478,66.62305,83.71234,66.29861,84.15223C65.97616,84.5941,65.56613,84.91058,65.07051,85.10564L64.48334,85.33653L64.32212,84.93048L69.44945,87.31899L67.12264,88.23459L62.66408,86.10085L62.15851,86.2979L63.48015,89.6677L61.60319,90.40614ZM64.05141,83.57899C64.28429,83.48743,64.47537,83.33815,64.62067,83.13512C64.76796,82.9321,64.85554,82.69524,64.88539,82.42454C64.91127,82.15384,64.86947,81.87319,64.75602,81.58458C64.58484,81.1427,64.31812,80.83419,63.95586,80.65107C63.59161,80.47193,63.23334,80.45004,62.87705,80.58737L60.31338,81.59851L61.48773,84.58614L64.05141,83.57899Z" fill="rgb(30,84,54)" stroke="none" stroke-width="1" stroke-miterlimit="1"/>
<path id="eXPjc1zqsRL17" d="M74.62655,84.19601L70.17596,73.92541L72.30372,71.94693L82.23595,77.11806L80.63565,78.60491L72.81328,74.39516L72.59433,74.60018L76.22686,82.70917L74.62655,84.19601ZM74.90919,80.78442L73.68707,79.47075L77.5903,75.84021L78.81242,77.15389L74.90919,80.78442Z" fill="rgb(30,84,54)" stroke="none" stroke-width="1" stroke-miterlimit="1"/></g><g id="eXPjc1zqsRL18"><g id="eXPjc1zqsRL19" transform="matrix(1 0 0 1 0 22)" opacity="0">
<path id="eXPjc1zqsRL20" d="M45.80837,38.98502C45.80837,41.26616,47.66401,43.1218,49.94467,43.1218C52.22533,43.1218,54.08097,41.26616,54.08097,38.98502C54.08097,36.70436,52.22581,34.84872,49.94467,34.84872C47.66353,34.84872,45.80837,36.70436,45.80837,38.98502ZM49.94467,35.80645C51.69741,35.80645,53.12372,37.23228,53.12372,38.9855C53.12372,40.73872,51.69789,42.16502,49.94468,42.16502C48.19146,42.16502,46.76564,40.73919,46.76564,38.9855C46.76562,37.23228,48.19194,35.80645,49.94467,35.80645Z" fill="rgb(30,84,54)" stroke="none" stroke-width="1" stroke-miterlimit="1"/>
<path id="eXPjc1zqsRL21" d="M50.4233,32.50153L50.4233,30.24911C50.4233,29.98443,50.20887,29.77048,49.94467,29.77048C49.68047,29.77048,49.46604,29.98443,49.46604,30.24911L49.46604,32.50153C49.46604,32.76621,49.68047,32.98016,49.94467,32.98016C50.20887,32.98016,50.4233,32.76621,50.4233,32.50153Z" fill="rgb(30,84,54)" stroke="none" stroke-width="1" stroke-miterlimit="1"/>
<path id="eXPjc1zqsRL22" d="M41.20972,38.36089C40.94935,38.36089,40.73588,38.57005,40.73109,38.83138C40.72678,39.09558,40.93738,39.31336,41.20158,39.31814L43.45352,39.35547C43.45639,39.35547,43.45878,39.35547,43.46166,39.35547C43.72203,39.35547,43.9355,39.14631,43.94029,38.88498C43.9446,38.62078,43.734,38.403,43.4698,38.39822L41.21785,38.36089C41.21498,38.36089,41.21259,38.36089,41.20972,38.36089Z" transform="matrix(1 0 0 1 -0.048157 0)" fill="rgb(30,84,54)" stroke="none" stroke-width="1" stroke-miterlimit="1"/>
<path id="eXPjc1zqsRL23" d="M44.61037,35.26943L42.67241,34.12168C42.4441,33.98719,42.15118,34.06233,42.01669,34.28968C41.88171,34.51751,41.95686,34.8109,42.18469,34.9454L44.12265,36.09315C44.19923,36.13862,44.28299,36.16016,44.36627,36.16016C44.52996,36.16016,44.68934,36.0764,44.77837,35.92563C44.91286,35.6978,44.83772,35.4044,44.61037,35.26943Z" fill="rgb(30,84,54)" stroke="none" stroke-width="1" stroke-miterlimit="1"/>
<path id="eXPjc1zqsRL24" d="M46.03476,31.15898C45.9041,30.92924,45.61117,30.84883,45.38191,30.97997C45.15217,31.11063,45.07224,31.40355,45.2029,31.63282L46.3181,33.58945C46.40617,33.74405,46.56794,33.83116,46.7345,33.83116C46.81491,33.83116,46.89628,33.81106,46.97094,33.76846C47.20068,33.63779,47.28061,33.34487,47.14995,33.11561L46.03476,31.15898Z" transform="matrix(1 0 0 1 -0.059151 0)" fill="rgb(30,84,54)" stroke="none" stroke-width="1" stroke-miterlimit="1"/>
<path id="eXPjc1zqsRL25" d="M55.03057,31.30113C54.80992,31.15515,54.51269,31.21546,54.36719,31.4361L53.12372,33.31423C52.97774,33.5344,53.03805,33.83163,53.2587,33.97761C53.34006,34.03121,53.43196,34.05706,53.52242,34.05706C53.6775,34.05706,53.83018,33.98191,53.92207,33.84264L55.16554,31.9645C55.31152,31.74434,55.25121,31.44711,55.03057,31.30113Z" fill="rgb(30,84,54)" stroke="none" stroke-width="1" stroke-miterlimit="1"/>
<path id="eXPjc1zqsRL26" d="M44.02884,41.6816L42.05402,42.76474C41.82236,42.89205,41.73717,43.18258,41.86448,43.41423C41.95159,43.57314,42.11528,43.66312,42.28471,43.66312C42.36273,43.66312,42.44122,43.64445,42.51445,43.60425L44.48927,42.52112C44.72093,42.39381,44.80612,42.10328,44.67881,41.87163C44.55149,41.63901,44.26097,41.55333,44.02884,41.6816Z" fill="rgb(30,84,54)" stroke="none" stroke-width="1" stroke-miterlimit="1"/>
<path id="eXPjc1zqsRL27" d="M45.11771,46.83451C45.19621,46.88285,45.28236,46.90535,45.36803,46.90535C45.52885,46.90535,45.68584,46.82446,45.7763,46.67704L46.95612,44.75822C47.09444,44.53327,47.02408,44.23843,46.79913,44.10011C46.5737,43.96131,46.27934,44.03119,46.14054,44.2571L44.96072,46.17592C44.8224,46.40087,44.89276,46.69619,45.11771,46.83451Z" fill="rgb(30,84,54)" stroke="none" stroke-width="1" stroke-miterlimit="1"/>
<path id="eXPjc1zqsRL28" d="M49.25066,45.44936L49.17551,47.70034C49.16642,47.96454,49.37366,48.18615,49.63787,48.19429C49.64313,48.19477,49.6484,48.19477,49.65414,48.19477C49.91116,48.19477,50.12367,47.99088,50.13229,47.73194L50.20744,45.48095C50.21653,45.21675,50.00929,44.99514,49.74508,44.98701C49.49093,44.96164,49.25927,45.18468,49.25066,45.44936Z" fill="rgb(30,84,54)" stroke="none" stroke-width="1" stroke-miterlimit="1"/>
<path id="eXPjc1zqsRL29" d="M52.74273,44.29826C52.50868,44.42126,52.41918,44.71083,52.54219,44.94489L53.59182,46.93789C53.67749,47.10062,53.84358,47.19348,54.01588,47.19348C54.09103,47.19348,54.16713,47.17577,54.23844,47.13844C54.47249,47.01543,54.56199,46.72586,54.43898,46.49181L53.38935,44.4988C53.26635,44.26524,52.97773,44.17525,52.74273,44.29826Z" fill="rgb(30,84,54)" stroke="none" stroke-width="1" stroke-miterlimit="1"/>
<path id="eXPjc1zqsRL30" d="M55.00663,42.21527C54.86448,42.43831,54.92957,42.7341,55.15261,42.87625L57.05133,44.08814C57.13126,44.13887,57.22028,44.16329,57.30835,44.16329C57.4663,44.16329,57.6209,44.08527,57.71231,43.94216C57.85446,43.71912,57.78937,43.42333,57.56633,43.28118L55.66762,42.0693C55.44506,41.92762,55.14927,41.99271,55.00663,42.21527Z" fill="rgb(30,84,54)" stroke="none" stroke-width="1" stroke-miterlimit="1"/>
<path id="eXPjc1zqsRL31" d="M55.94235,39.28512C55.92895,39.54932,56.13236,39.7738,56.39657,39.7872L58.64612,39.89968C58.65426,39.90016,58.66239,39.90016,58.67053,39.90016C58.92372,39.90016,59.13528,39.70153,59.1482,39.44546C59.1616,39.18126,58.95818,38.95678,58.69398,38.94338L56.44443,38.8309C56.19076,38.81606,55.95528,39.02044,55.94235,39.28512Z" fill="rgb(30,84,54)" stroke="none" stroke-width="1" stroke-miterlimit="1"/>
<path id="eXPjc1zqsRL32" d="M57.52517,34.61658L55.51494,35.6327C55.27897,35.75188,55.18469,36.04001,55.30387,36.27598C55.38811,36.44302,55.55658,36.53874,55.73176,36.53874C55.80403,36.53874,55.87822,36.52247,55.94715,36.48753L57.95738,35.47141C58.19334,35.35223,58.28763,35.0641,58.16845,34.82813C58.04879,34.59169,57.76066,34.49597,57.52517,34.61658Z" fill="rgb(30,84,54)" stroke="none" stroke-width="1" stroke-miterlimit="1"/></g></g><circle id="eXPjc1zqsRL33" r="1.96744" transform="matrix(1 0 0 1 85.6518 54.3049)" fill="rgb(30,84,54)" stroke="none" stroke-width="1" stroke-miterlimit="1"/><circle id="eXPjc1zqsRL34" r="1.96744" transform="matrix(1 0 0 1 13.7312 54.3049)" fill="rgb(30,84,54)" stroke="none" stroke-width="1" stroke-miterlimit="1"/><g id="eXPjc1zqsRL35"><g id="eXPjc1zqsRL36">
<path id="eXPjc1zqsRL37" d="M44.278,67.877376C44.203,67.877376,44.127,67.860824,44.055,67.825773C38.517,65.128777,31.337,63.32656,31.265,63.308061C30.997,63.241853,30.836,62.976048,30.905,62.716085C30.974,62.456122,31.246,62.297418,31.513,62.365573C31.586,62.384072,38.869,64.212577,44.502,66.955334C44.749,67.076066,44.849,67.36816,44.726,67.60865C44.638,67.779038,44.462,67.877376,44.278,67.877376Z" transform="matrix(0.221971 0 0 0.221971 24.032605 48.509941)" opacity="0" fill="rgb(34,84,57)" stroke="none" stroke-width="1" stroke-miterlimit="1"/>
<path id="eXPjc1zqsRL38" d="M53.9,68.2C53.81,68.2,53.72,68.177,53.638,68.126C40.659,60.166,31.437,59.268,31.345,59.26C31.07,59.236,30.867,58.993,30.891,58.718C30.915,58.444,31.165,58.247,31.433,58.264C31.816,58.297,40.961,59.178,54.162,67.275C54.397,67.419,54.471,67.727,54.326,67.963C54.232,68.115,54.068,68.2,53.9,68.2Z" transform="matrix(0.209702 0 0 0.209702 24.411584 46.045118)" opacity="0" fill="rgb(34,84,57)" stroke="none" stroke-width="1" stroke-miterlimit="1"/>
<path id="eXPjc1zqsRL39" d="M61.512,68.027C61.403,68.027,61.293,67.992,61.2,67.919C46.986,56.612,31.264,55.292,31.106,55.28C30.831,55.259,30.625,55.018,30.646,54.743C30.667,54.468,30.908,54.256,31.182,54.282C31.342,54.295,47.358,55.631,61.823,67.136C62.039,67.308,62.075,67.622,61.903,67.839C61.805,67.963,61.658,68.027,61.512,68.027Z" transform="matrix(0.217839 0 0 0.217839 23.968963 42.475176)" opacity="0" fill="rgb(34,84,57)" stroke="none" stroke-width="1" stroke-miterlimit="1"/>
<path id="eXPjc1zqsRL40" d="M68.72,67.811C68.599,67.811,68.477,67.767,68.38,67.678C51.551,52.122,31.808,51.701,31.611,51.699C31.335,51.695,31.113,51.47,31.117,51.193C31.12,50.917,31.348,50.693,31.623,50.699C31.824,50.701,51.937,51.117,69.06,66.943C69.262,67.131,69.275,67.447,69.087,67.65C68.988,67.757,68.854,67.811,68.72,67.811Z" transform="matrix(0.211967 0 0 0.211967 24.521183 39.952403)" opacity="0" fill="rgb(34,84,57)" stroke="none" stroke-width="1" stroke-miterlimit="1"/></g><g id="eXPjc1zqsRL41" opacity="0.95">
<path id="eXPjc1zqsRL42" d="M61.512,62.092C61.324,62.092,61.143,61.985,61.058,61.802C60.943,61.551,61.052,61.254,61.302,61.138C63.939,59.921,68.44,58.755,68.63,58.706C68.899,58.637,69.17,58.799,69.239,59.065C69.307,59.333,69.147,59.605,68.88,59.674C68.834,59.686,64.276,60.866,61.722,62.045C61.653,62.077,61.582,62.092,61.512,62.092Z" transform="matrix(0.127797 0 0 0.127797 60.373993 51.189701)" opacity="0" fill="rgb(34,84,57)" stroke="none" stroke-width="1" stroke-miterlimit="1"/>
<path id="eXPjc1zqsRL43" d="M56.684,59.137C56.482,59.137,56.291,59.013,56.216,58.813C56.118,58.554,56.249,58.266,56.508,58.169C63.533,55.53,68.617,54.618,68.668,54.609C68.933,54.553,69.198,54.742,69.247,55.014C69.295,55.285,69.113,55.545,68.842,55.593C68.792,55.602,63.791,56.501,56.86,59.104C56.802,59.127,56.742,59.137,56.684,59.137Z" transform="matrix(0.199365 0 0 0.199365 55.420048 43.746119)" opacity="0" fill="rgb(34,84,57)" stroke="none" stroke-width="1" stroke-miterlimit="1"/>
<path id="eXPjc1zqsRL44" d="M51.47,56.578C51.288,56.578,51.113,56.478,51.025,56.306C50.9,56.06,50.997,55.758,51.243,55.633C58.354,52.005,68.833,50.639,68.937,50.625C69.205,50.594,69.461,50.783,69.497,51.058C69.533,51.333,69.338,51.582,69.064,51.618C68.96,51.631,58.651,52.977,51.698,56.524C51.624,56.561,51.547,56.578,51.47,56.578Z" transform="matrix(0.250913 0 0 0.250913 51.851889 37.977883)" opacity="0" fill="rgb(34,84,57)" stroke="none" stroke-width="1" stroke-miterlimit="1"/>
<path id="eXPjc1zqsRL45" d="M45.582,54.363C45.395,54.363,45.216,54.259,45.13,54.079C45.011,53.829,45.116,53.531,45.366,53.412C57.304,47.712,68.39,47.046,68.501,47.04C68.809,47.011,69.013,47.236,69.027,47.512C69.043,47.787,68.831,48.023,68.555,48.038C68.447,48.044,57.548,48.704,45.796,54.314C45.728,54.348,45.654,54.363,45.582,54.363Z" transform="matrix(0.243508 0 0 0.243508 51.795329 35.583514)" opacity="0" fill="rgb(34,84,57)" stroke="none" stroke-width="1" stroke-miterlimit="1"/></g></g></g>
<script>
<![CDATA[
!function(t,n){
    "object"==typeof exports&&"undefined"!=typeof module?module.exports=n():"function"==typeof define&&define.amd?define(n):(t="undefined"!=typeof globalThis?globalThis:t||self).__SVGATOR_PLAYER__=n()}(this,(function(){"use strict";function t(n){return(t="function"==typeof Symbol&&"symbol"==typeof Symbol.iterator?function(t){return typeof t}:function(t){return t&&"function"==typeof Symbol&&t.constructor===Symbol&&t!==Symbol.prototype?"symbol":typeof t})(n)}function n(t,n){if(!(t instanceof n))throw new TypeError("Cannot call a class as a function")}function r(t,n){for(var r=0;r<n.length;r++){var e=n[r];e.enumerable=e.enumerable||!1,e.configurable=!0,"value"in e&&(e.writable=!0),Object.defineProperty(t,e.key,e)}}function e(t,n,e){return n&&r(t.prototype,n),e&&r(t,e),t}function i(t){return(i=Object.setPrototypeOf?Object.getPrototypeOf:function(t){return t.__proto__||Object.getPrototypeOf(t)})(t)}function o(t,n){return(o=Object.setPrototypeOf||function(t,n){return t.__proto__=n,t})(t,n)}function u(t,n){return!n||"object"!=typeof n&&"function"!=typeof n?function(t){if(void 0===t)throw new ReferenceError("this hasn't been initialised - super() hasn't been called");return t}(t):n}function a(t){var n=function(){if("undefined"==typeof Reflect||!Reflect.construct)return!1;if(Reflect.construct.sham)return!1;if("function"==typeof Proxy)return!0;try{return Boolean.prototype.valueOf.call(Reflect.construct(Boolean,[],(function(){}))),!0}catch(t){return!1}}();return function(){var r,e=i(t);if(n){var o=i(this).constructor;r=Reflect.construct(e,arguments,o)}else r=e.apply(this,arguments);return u(this,r)}}function l(t,n,r){return(l="undefined"!=typeof Reflect&&Reflect.get?Reflect.get:function(t,n,r){var e=function(t,n){for(;!Object.prototype.hasOwnProperty.call(t,n)&&null!==(t=i(t)););return t}(t,n);if(e){var o=Object.getOwnPropertyDescriptor(e,n);return o.get?o.get.call(r):o.value}})(t,n,r||t)}var f=s(Math.pow(10,-6));function s(t){var n=arguments.length>1&&void 0!==arguments[1]?arguments[1]:6;if(Number.isInteger(t))return t;var r=Math.pow(10,n);return Math.round((+t+Number.EPSILON)*r)/r}function c(t,n){var r=arguments.length>2&&void 0!==arguments[2]?arguments[2]:f;return Math.abs(t-n)<r}var h=Math.PI/180;function v(t){return t}function y(t,n,r){var e=1-r;return 3*r*e*(t*e+n*r)+r*r*r}function d(){var t=arguments.length>0&&void 0!==arguments[0]?arguments[0]:0,n=arguments.length>1&&void 0!==arguments[1]?arguments[1]:0,r=arguments.length>2&&void 0!==arguments[2]?arguments[2]:1,e=arguments.length>3&&void 0!==arguments[3]?arguments[3]:1;return t<0||t>1||r<0||r>1?null:c(t,n)&&c(r,e)?v:function(i){if(i<=0)return t>0?i*n/t:0===n&&r>0?i*e/r:0;if(i>=1)return r<1?1+(i-1)*(e-1)/(r-1):1===r&&t<1?1+(i-1)*(n-1)/(t-1):1;for(var o,u=0,a=1;u<a;){var l=y(t,r,o=(u+a)/2);if(c(i,l))break;l<i?u=o:a=o}return y(n,e,o)}}function g(){return 1}function p(t){return 1===t?1:0}function m(){var t=arguments.length>0&&void 0!==arguments[0]?arguments[0]:1,n=arguments.length>1&&void 0!==arguments[1]?arguments[1]:0;if(1===t){if(0===n)return p;if(1===n)return g}var r=1/t;return function(t){return t>=1?1:(t+=n*r)-t%r}}function b(t,n,r){return t>=.5?r:n}function w(t,n,r){return 0===t||n===r?n:t*(r-n)+n}function x(t,n,r){var e=w(t,n,r);return e<=0?0:e}function k(t,n,r){return 0===t?n:1===t?r:{x:w(t,n.x,r.x),y:w(t,n.y,r.y)}}function A(t,n,r){var e=function(t,n,r){return Math.round(w(t,n,r))}(t,n,r);return e<=0?0:e>=255?255:e}function _(t,n,r){return 0===t?n:1===t?r:{r:A(t,n.r,r.r),g:A(t,n.g,r.g),b:A(t,n.b,r.b),a:w(t,null==n.a?1:n.a,null==r.a?1:r.a)}}function S(t,n,r){if(0===t)return n;if(1===t)return r;var e=n.length;if(e!==r.length)return b(t,n,r);for(var i=[],o=0;o<e;o++)i.push(_(t,n[o],r[o]));return i}function O(t,n){for(var r=[],e=0;e<t;e++)r.push(n);return r}function M(t,n){if(--n<=0)return t;var r=(t=Object.assign([],t)).length;do{for(var e=0;e<r;e++)t.push(t[e])}while(--n>0);return t}var j,P=function(){function t(r){n(this,t),this.list=r,this.length=r.length}return e(t,[{key:"setAttribute",value:function(t,n){for(var r=this.list,e=0;e<this.length;e++)r[e].setAttribute(t,n)}},{key:"removeAttribute",value:function(t){for(var n=this.list,r=0;r<this.length;r++)n[r].removeAttribute(t)}},{key:"style",value:function(t,n){for(var r=this.list,e=0;e<this.length;e++)r[e].style[t]=n}}]),t}(),B=/-./g,E=function(t,n){return n.toUpperCase()};function F(t){return"function"==typeof t?t:b}function I(t){return t?"function"==typeof t?t:Array.isArray(t)?function(t){var n=arguments.length>1&&void 0!==arguments[1]?arguments[1]:v;if(!Array.isArray(t))return n;switch(t.length){case 1:return m(t[0])||n;case 2:return m(t[0],t[1])||n;case 4:return d(t[0],t[1],t[2],t[3])||n}return n}(t,null):function(t,n){var r=arguments.length>2&&void 0!==arguments[2]?arguments[2]:v;switch(t){case"linear":return v;case"steps":return m(n.steps||1,n.jump||0)||r;case"bezier":case"cubic-bezier":return d(n.x1||0,n.y1||0,n.x2||0,n.y2||0)||r}return r}(t.type,t.value,null):null}function R(t,n,r){var e=arguments.length>3&&void 0!==arguments[3]&&arguments[3],i=n.length-1;if(t<=n[0].t)return e?[0,0,n[0].v]:n[0].v;if(t>=n[i].t)return e?[i,1,n[i].v]:n[i].v;var o,u=n[0],a=null;for(o=1;o<=i;o++){if(!(t>n[o].t)){a=n[o];break}u=n[o]}return null==a?e?[i,1,n[i].v]:n[i].v:u.t===a.t?e?[o,1,a.v]:a.v:(t=(t-u.t)/(a.t-u.t),u.e&&(t=u.e(t)),e?[o,t,r(t,u.v,a.v)]:r(t,u.v,a.v))}function q(t,n){var r=arguments.length>2&&void 0!==arguments[2]?arguments[2]:null;return t&&t.length?"function"!=typeof n?null:("function"!=typeof r&&(r=null),function(e){var i=R(e,t,n);return null!=i&&r&&(i=r(i)),i}):null}function T(t,n){return t.t-n.t}function N(n,r,e,i,o){var u,a="@"===e[0],l="#"===e[0],f=j[e],s=b;switch(a?(u=e.substr(1),e=u.replace(B,E)):l&&(e=e.substr(1)),t(f)){case"function":if(s=f(i,o,R,I,e,a,r,n),l)return s;break;case"string":s=q(i,F(f));break;case"object":if((s=q(i,F(f.i),f.f))&&"function"==typeof f.u)return f.u(r,s,e,a,n)}return s?function(t,n,r){var e=arguments.length>3&&void 0!==arguments[3]&&arguments[3];if(e)return t instanceof P?function(e){return t.style(n,r(e))}:function(e){return t.style[n]=r(e)};if(Array.isArray(n)){var i=n.length;return function(e){var o=r(e);if(null==o)for(var u=0;u<i;u++)t[u].removeAttribute(n);else for(var a=0;a<i;a++)t[a].setAttribute(n,o)}}return function(e){var i=r(e);null==i?t.removeAttribute(n):t.setAttribute(n,i)}}(r,e,s,a):null}function C(n,r,e,i){if(!i||"object"!==t(i))return null;var o=null,u=null;return Array.isArray(i)?u=function(t){if(!t||!t.length)return null;for(var n=0;n<t.length;n++)t[n].e&&(t[n].e=I(t[n].e));return t.sort(T)}(i):(u=i.keys,o=i.data||null),u?N(n,r,e,u,o):null}function z(t,n,r){if(!r)return null;var e=[];for(var i in r)if(r.hasOwnProperty(i)){var o=C(t,n,i,r[i]);o&&e.push(o)}return e.length?e:null}function L(t,n){if(!n.duration||n.duration<0)return null;var r=function(t,n){if(!n)return null;var r=[];if(Array.isArray(n))for(var e=n.length,i=0;i<e;i++){var o=n[i];if(2===o.length){var u=null;if("string"==typeof o[0])u=t.getElementById(o[0]);else if(Array.isArray(o[0])){u=[];for(var a=0;a<o[0].length;a++)if("string"==typeof o[0][a]){var l=t.getElementById(o[0][a]);l&&u.push(l)}u=u.length?1===u.length?u[0]:new P(u):null}if(u){var f=z(t,u,o[1]);f&&(r=r.concat(f))}}}else for(var s in n)if(n.hasOwnProperty(s)){var c=t.getElementById(s);if(c){var h=z(t,c,n[s]);h&&(r=r.concat(h))}}return r.length?r:null}(t,n.elements);return r?function(t,n){var r=arguments.length>2&&void 0!==arguments[2]?arguments[2]:1/0,e=arguments.length>3&&void 0!==arguments[3]?arguments[3]:1,i=arguments.length>4&&void 0!==arguments[4]&&arguments[4],o=arguments.length>5&&void 0!==arguments[5]?arguments[5]:1,u=t.length,a=e>0?n:0;i&&r%2==0&&(a=n-a);var l=null;return function(f,s){var c=f%n,h=1+(f-c)/n;s*=e,i&&h%2==0&&(s=-s);var v=!1;if(h>r)c=a,v=!0,-1===o&&(c=e>0?0:n);else if(s<0&&(c=n-c),c===l)return!1;l=c;for(var y=0;y<u;y++)t[y](c);return v}}(r,n.duration,n.iterations||1/0,n.direction||1,!!n.alternate,n.fill||1):null}var D=function(){function t(r,e){var i=arguments.length>2&&void 0!==arguments[2]?arguments[2]:{};n(this,t),this._id=0,this._running=!1,this._rollingBack=!1,this._animations=r,this.duration=e.duration,this.alternate=e.alternate,this.fill=e.fill,this.iterations=e.iterations,this.direction=i.direction||1,this.speed=i.speed||1,this.fps=i.fps||100,this.offset=i.offset||0,this.rollbackStartOffset=0}return e(t,[{key:"_rollback",value:function(){var t=this,n=1/0,r=null;this.rollbackStartOffset=this.offset,this._rollingBack||(this._rollingBack=!0,this._running=!0);this._id=window.requestAnimationFrame((function e(i){if(t._rollingBack){null==r&&(r=i);var o=i-r,u=t.rollbackStartOffset-o,a=Math.round(u*t.speed);if(a>t.duration&&n!=1/0){var l=!!t.alternate&&a/t.duration%2>1,f=a%t.duration;a=(f+=l?t.duration:0)||t.duration}var s=t.fps?1e3/t.fps:0,c=Math.max(0,a);if(c<n-s){t.offset=c,n=c;for(var h=t._animations,v=h.length,y=0;y<v;y++)h[y](c,t.direction)}var d=!1;if(t.iterations>0&&-1===t.fill){var g=t.iterations*t.duration,p=g==a;a=p?0:a,t.offset=p?0:t.offset,d=a>g}a>0&&t.offset>=a&&!d?t._id=window.requestAnimationFrame(e):t.stop()}}))}},{key:"_start",value:function(){var t=this,n=arguments.length>0&&void 0!==arguments[0]?arguments[0]:0,r=-1/0,e=null,i={},o=function o(u){t._running=!0,null==e&&(e=u);var a=Math.round((u-e+n)*t.speed),l=t.fps?1e3/t.fps:0;if(a>r+l&&!t._rollingBack){t.offset=a,r=a;for(var f=t._animations,s=f.length,c=0,h=0;h<s;h++)i[h]?c++:(i[h]=f[h](a,t.direction),i[h]&&c++);if(c===s)return void t._stop()}t._id=window.requestAnimationFrame(o)};this._id=window.requestAnimationFrame(o)}},{key:"_stop",value:function(){this._id&&window.cancelAnimationFrame(this._id),this._running=!1,this._rollingBack=!1}},{key:"play",value:function(){!this._rollingBack&&this._running||(this._rollingBack=!1,this.rollbackStartOffset>this.duration&&(this.offset=this.rollbackStartOffset-(this.rollbackStartOffset-this.offset)%this.duration,this.rollbackStartOffset=0),this._start(this.offset))}},{key:"stop",value:function(){this._stop(),this.offset=0,this.rollbackStartOffset=0;var t=this.direction,n=this._animations;window.requestAnimationFrame((function(){for(var r=0;r<n.length;r++)n[r](0,t)}))}},{key:"reachedToEnd",value:function(){return this.iterations>0&&this.offset>=this.iterations*this.duration}},{key:"restart",value:function(){this._stop(),this.offset=0,this._start()}},{key:"pause",value:function(){this._stop()}},{key:"reverse",value:function(){this.direction=-this.direction}}],[{key:"build",value:function(n,r){return(n=function(t,n){if(j=n,!t||!t.root||!Array.isArray(t.animations))return null;for(var r=document.getElementsByTagName("svg"),e=!1,i=0;i<r.length;i++)if(r[i].id===t.root&&!r[i].svgatorAnimation){(e=r[i]).svgatorAnimation=!0;break}if(!e)return null;var o=t.animations.map((function(t){return L(e,t)})).filter((function(t){return!!t}));return o.length?{element:e,animations:o,animationSettings:t.animationSettings,options:t.options||void 0}:null}(n,r))?{el:n.element,options:n.options||{},player:new t(n.animations,n.animationSettings,n.options)}:null}}]),t}();function Q(t){return s(t)+""}function U(t){var n=arguments.length>1&&void 0!==arguments[1]?arguments[1]:" ";return t&&t.length?t.map(Q).join(n):""}function V(t){return t?null==t.a||t.a>=1?"rgb("+t.r+","+t.g+","+t.b+")":"rgba("+t.r+","+t.g+","+t.b+","+t.a+")":"transparent"}!function(){for(var t=0,n=["ms","moz","webkit","o"],r=0;r<n.length&&!window.requestAnimationFrame;++r)window.requestAnimationFrame=window[n[r]+"RequestAnimationFrame"],window.cancelAnimationFrame=window[n[r]+"CancelAnimationFrame"]||window[n[r]+"CancelRequestAnimationFrame"];window.requestAnimationFrame||(window.requestAnimationFrame=function(n){var r=Date.now(),e=Math.max(0,16-(r-t)),i=window.setTimeout((function(){n(r+e)}),e);return t=r+e,i},window.cancelAnimationFrame=window.clearTimeout)}();var G={f:null,i:function(t,n,r){return 0===t?n:1===t?r:{x:x(t,n.x,r.x),y:x(t,n.y,r.y)}},u:function(t,n){return function(r){var e=n(r);t.setAttribute("rx",Q(e.x)),t.setAttribute("ry",Q(e.y))}}},H={f:null,i:function(t,n,r){return 0===t?n:1===t?r:{width:x(t,n.width,r.width),height:x(t,n.height,r.height)}},u:function(t,n){return function(r){var e=n(r);t.setAttribute("width",Q(e.width)),t.setAttribute("height",Q(e.height))}}},Y=Math.sin,Z=Math.cos,J=Math.acos,K=Math.asin,W=Math.tan,X=Math.atan2,$=Math.PI/180,tt=180/Math.PI,nt=Math.sqrt,rt=function(){function t(){var r=arguments.length>0&&void 0!==arguments[0]?arguments[0]:1,e=arguments.length>1&&void 0!==arguments[1]?arguments[1]:0,i=arguments.length>2&&void 0!==arguments[2]?arguments[2]:0,o=arguments.length>3&&void 0!==arguments[3]?arguments[3]:1,u=arguments.length>4&&void 0!==arguments[4]?arguments[4]:0,a=arguments.length>5&&void 0!==arguments[5]?arguments[5]:0;n(this,t),this.m=[r,e,i,o,u,a],this.i=null,this.w=null,this.s=null}return e(t,[{key:"determinant",get:function(){var t=this.m;return t[0]*t[3]-t[1]*t[2]}},{key:"isIdentity",get:function(){if(null===this.i){var t=this.m;this.i=1===t[0]&&0===t[1]&&0===t[2]&&1===t[3]&&0===t[4]&&0===t[5]}return this.i}},{key:"point",value:function(t,n){var r=this.m;return{x:r[0]*t+r[2]*n+r[4],y:r[1]*t+r[3]*n+r[5]}}},{key:"translateSelf",value:function(){var t=arguments.length>0&&void 0!==arguments[0]?arguments[0]:0,n=arguments.length>1&&void 0!==arguments[1]?arguments[1]:0;if(!t&&!n)return this;var r=this.m;return r[4]+=r[0]*t+r[2]*n,r[5]+=r[1]*t+r[3]*n,this.w=this.s=this.i=null,this}},{key:"rotateSelf",value:function(){var t=arguments.length>0&&void 0!==arguments[0]?arguments[0]:0;if(t%=360){var n=Y(t*=$),r=Z(t),e=this.m,i=e[0],o=e[1];e[0]=i*r+e[2]*n,e[1]=o*r+e[3]*n,e[2]=e[2]*r-i*n,e[3]=e[3]*r-o*n,this.w=this.s=this.i=null}return this}},{key:"scaleSelf",value:function(){var t=arguments.length>0&&void 0!==arguments[0]?arguments[0]:1,n=arguments.length>1&&void 0!==arguments[1]?arguments[1]:1;if(1!==t||1!==n){var r=this.m;r[0]*=t,r[1]*=t,r[2]*=n,r[3]*=n,this.w=this.s=this.i=null}return this}},{key:"skewSelf",value:function(t,n){if(n%=360,(t%=360)||n){var r=this.m,e=r[0],i=r[1],o=r[2],u=r[3];t&&(t=W(t*$),r[2]+=e*t,r[3]+=i*t),n&&(n=W(n*$),r[0]+=o*n,r[1]+=u*n),this.w=this.s=this.i=null}return this}},{key:"resetSelf",value:function(){var t=arguments.length>0&&void 0!==arguments[0]?arguments[0]:1,n=arguments.length>1&&void 0!==arguments[1]?arguments[1]:0,r=arguments.length>2&&void 0!==arguments[2]?arguments[2]:0,e=arguments.length>3&&void 0!==arguments[3]?arguments[3]:1,i=arguments.length>4&&void 0!==arguments[4]?arguments[4]:0,o=arguments.length>5&&void 0!==arguments[5]?arguments[5]:0,u=this.m;return u[0]=t,u[1]=n,u[2]=r,u[3]=e,u[4]=i,u[5]=o,this.w=this.s=this.i=null,this}},{key:"recomposeSelf",value:function(){var t=arguments.length>0&&void 0!==arguments[0]?arguments[0]:null,n=arguments.length>1&&void 0!==arguments[1]?arguments[1]:null,r=arguments.length>2&&void 0!==arguments[2]?arguments[2]:null,e=arguments.length>3&&void 0!==arguments[3]?arguments[3]:null,i=arguments.length>4&&void 0!==arguments[4]?arguments[4]:null;return this.isIdentity||this.resetSelf(),t&&(t.x||t.y)&&this.translateSelf(t.x,t.y),n&&this.rotateSelf(n),r&&(r.x&&this.skewSelf(r.x,0),r.y&&this.skewSelf(0,r.y)),!e||1===e.x&&1===e.y||this.scaleSelf(e.x,e.y),i&&(i.x||i.y)&&this.translateSelf(i.x,i.y),this}},{key:"decompose",value:function(){var t=arguments.length>0&&void 0!==arguments[0]?arguments[0]:0,n=arguments.length>1&&void 0!==arguments[1]?arguments[1]:0,r=this.m,e=r[0]*r[0]+r[1]*r[1],i=[[r[0],r[1]],[r[2],r[3]]],o=nt(e);if(0===o)return{origin:{x:s(r[4]),y:s(r[5])},translate:{x:s(t),y:s(n)},scale:{x:0,y:0},skew:{x:0,y:0},rotate:0};i[0][0]/=o,i[0][1]/=o;var u=r[0]*r[3]-r[1]*r[2]<0;u&&(o=-o);var a=i[0][0]*i[1][0]+i[0][1]*i[1][1];i[1][0]-=i[0][0]*a,i[1][1]-=i[0][1]*a;var l=nt(i[1][0]*i[1][0]+i[1][1]*i[1][1]);if(0===l)return{origin:{x:s(r[4]),y:s(r[5])},translate:{x:s(t),y:s(n)},scale:{x:s(o),y:0},skew:{x:0,y:0},rotate:0};i[1][0]/=l,i[1][1]/=l,a/=l;var f=0;return i[1][1]<0?(f=J(i[1][1])*tt,i[0][1]<0&&(f=360-f)):f=K(i[0][1])*tt,u&&(f=-f),a=X(a,nt(i[0][0]*i[0][0]+i[0][1]*i[0][1]))*tt,u&&(a=-a),{origin:{x:s(r[4]),y:s(r[5])},translate:{x:s(t),y:s(n)},scale:{x:s(o),y:s(l)},skew:{x:s(a),y:0},rotate:s(f)}}},{key:"toString",value:function(){return null===this.s&&(this.s="matrix("+this.m.map((function(t){return s(t)})).join(" ")+")"),this.s}}]),t}();Object.freeze({M:2,L:2,Z:0,H:1,V:1,C:6,Q:4,T:2,S:4,A:7});var et={},it=null;function ot(n){var r=function(){if(it)return it;if("object"!==("undefined"==typeof document?"undefined":t(document))||!document.createElementNS)return{};var n=document.createElementNS("http://www.w3.org/2000/svg","svg");return n&&n.style?(n.style.position="absolute",n.style.opacity="0.01",n.style.zIndex="-9999",n.style.left="-9999px",n.style.width="1px",n.style.height="1px",it={svg:n}):{}}().svg;if(!r)return function(t){return null};var e=document.createElementNS(r.namespaceURI,"path");e.setAttributeNS(null,"d",n),e.setAttributeNS(null,"fill","none"),e.setAttributeNS(null,"stroke","none"),r.appendChild(e);var i=e.getTotalLength();return function(t){var n=e.getPointAtLength(i*t);return{x:n.x,y:n.y}}}function ut(t){return et[t]?et[t]:et[t]=ot(t)}function at(t,n,r,e){if(!t||!e)return!1;var i=["M",t.x,t.y];if(n&&r&&(i.push("C"),i.push(n.x),i.push(n.y),i.push(r.x),i.push(r.y)),n?!r:r){var o=n||r;i.push("Q"),i.push(o.x),i.push(o.y)}return n||r||i.push("L"),i.push(e.x),i.push(e.y),i.join(" ")}function lt(t,n,r,e){var i=arguments.length>4&&void 0!==arguments[4]?arguments[4]:1,o=at(t,n,r,e),u=ut(o);try{return u(i)}catch(t){return null}}function ft(t,n,r,e){var i=1-e;return i*i*t+2*i*e*n+e*e*r}function st(t,n,r,e){return 2*(1-e)*(n-t)+2*e*(r-n)}function ct(t,n,r,e){var i=arguments.length>4&&void 0!==arguments[4]&&arguments[4],o=lt(t,n,null,r,e);return o||(o={x:ft(t.x,n.x,r.x,e),y:ft(t.y,n.y,r.y,e)}),i&&(o.a=ht(t,n,r,e)),o}function ht(t,n,r,e){return Math.atan2(st(t.y,n.y,r.y,e),st(t.x,n.x,r.x,e))}function vt(t,n,r,e,i){var o=i*i;return i*o*(e-t+3*(n-r))+3*o*(t+r-2*n)+3*i*(n-t)+t}function yt(t,n,r,e,i){var o=1-i;return 3*(o*o*(n-t)+2*o*i*(r-n)+i*i*(e-r))}function dt(t,n,r,e,i){var o=arguments.length>5&&void 0!==arguments[5]&&arguments[5],u=lt(t,n,r,e,i);return u||(u={x:vt(t.x,n.x,r.x,e.x,i),y:vt(t.y,n.y,r.y,e.y,i)}),o&&(u.a=gt(t,n,r,e,i)),u}function gt(t,n,r,e,i){return Math.atan2(yt(t.y,n.y,r.y,e.y,i),yt(t.x,n.x,r.x,e.x,i))}function pt(t,n,r){return t+(n-t)*r}function mt(t,n,r){var e=arguments.length>3&&void 0!==arguments[3]&&arguments[3],i={x:pt(t.x,n.x,r),y:pt(t.y,n.y,r)};return e&&(i.a=bt(t,n)),i}function bt(t,n){return Math.atan2(n.y-t.y,n.x-t.x)}function wt(t,n,r){var e=arguments.length>3&&void 0!==arguments[3]&&arguments[3];if(kt(n)){if(At(r))return ct(n,r.start,r,t,e)}else if(kt(r)){if(n.end)return ct(n,n.end,r,t,e)}else{if(n.end)return r.start?dt(n,n.end,r.start,r,t,e):ct(n,n.end,r,t,e);if(r.start)return ct(n,r.start,r,t,e)}return mt(n,r,t,e)}function xt(t,n,r){var e=wt(t,n,r,!0);return e.a=function(t){var n=arguments.length>1&&void 0!==arguments[1]&&arguments[1];return n?t+Math.PI:t}(e.a)/h,e}function kt(t){return!t.type||"corner"===t.type}function At(t){return null!=t.start&&!kt(t)}var _t=new rt;var St={f:Q,i:w},Ot={f:Q,i:function(t,n,r){var e=w(t,n,r);return e<=0?0:e>=1?1:e}};function Mt(t,n,r,e,i,o,u,a){return n=function(t,n,r){for(var e,i,o,u=t.length-1,a={},l=0;l<=u;l++)(e=t[l]).e&&(e.e=n(e.e)),e.v&&"g"===(i=e.v).t&&i.r&&(o=r.getElementById(i.r))&&(a[i.r]=o.querySelectorAll("stop"));return a}(t,e,a),function(e){var i,o=r(e,t,jt);return o?"c"===o.t?V(o.v):"g"===o.t?(n[o.r]&&function(t,n){for(var r=0,e=t.length;r<e;r++)t[r].setAttribute("stop-color",V(n[r]))}(n[o.r],o.v),(i=o.r)?"url(#"+i+")":"none"):"none":"none"}}function jt(t,n,r){if(0===t)return n;if(1===t)return r;if(n&&r){var e=n.t;if(e===r.t)switch(n.t){case"c":return{t:e,v:_(t,n.v,r.v)};case"g":if(n.r===r.r)return{t:e,v:S(t,n.v,r.v),r:n.r}}}return b(t,n,r)}var Pt={fill:Mt,"fill-opacity":Ot,stroke:Mt,"stroke-opacity":Ot,"stroke-width":St,"stroke-dashoffset":{f:Q,i:w},"stroke-dasharray":{f:function(t){var n=arguments.length>1&&void 0!==arguments[1]?arguments[1]:" ";return t&&t.length>0&&(t=t.map((function(t){return s(t,4)}))),U(t,n)},i:function(t,n,r){var e,i,o,u=n.length,a=r.length;if(u!==a)if(0===u)n=O(u=a,0);else if(0===a)a=u,r=O(u,0);else{var l=(o=(e=u)*(i=a)/function(t,n){for(var r;n;)r=n,n=t%n,t=r;return t||1}(e,i))<0?-o:o;n=M(n,Math.floor(l/u)),r=M(r,Math.floor(l/a)),u=a=l}for(var f=[],c=0;c<u;c++)f.push(s(x(t,n[c],r[c])));return f}},opacity:Ot,transform:function(n,r,e,i){if(!(n=function(n,r){if(!n||"object"!==t(n))return null;var e=!1;for(var i in n)n.hasOwnProperty(i)&&(n[i]&&n[i].length?(n[i].forEach((function(t){t.e&&(t.e=r(t.e))})),e=!0):delete n[i]);return e?n:null}(n,i)))return null;var o=function(t,i,o){var u=arguments.length>3&&void 0!==arguments[3]?arguments[3]:null;return n[t]?e(i,n[t],o):r&&r[t]?r[t]:u};return r&&r.a&&n.o?function(t){var r=e(t,n.o,xt);return _t.recomposeSelf(r,o("r",t,w,0)+r.a,o("k",t,k),o("s",t,k),o("t",t,k)).toString()}:function(t){return _t.recomposeSelf(o("o",t,wt,null),o("r",t,w,0),o("k",t,k),o("s",t,k),o("t",t,k)).toString()}},r:St,"#size":H,"#radius":G,_:function(t,n){if(Array.isArray(t))for(var r=0;r<t.length;r++)this[t[r]]=n;else this[t]=n}};return function(t){!function(t,n){if("function"!=typeof n&&null!==n)throw new TypeError("Super expression must either be null or a function");t.prototype=Object.create(n&&n.prototype,{constructor:{value:t,writable:!0,configurable:!0}}),n&&o(t,n)}(u,t);var r=a(u);function u(){return n(this,u),r.apply(this,arguments)}return e(u,null,[{key:"build",value:function(t){var n=l(i(u),"build",this).call(this,t,Pt);if(!n)return null;n.el,n.options;var r=n.player;return function(t,n,r){t.play()}(r),r}}]),u}(D)}));
__SVGATOR_PLAYER__.build({"root":"eXPjc1zqsRL1","animations":[{"duration":2000,"direction":1,"iterations":1,"fill":1,"alternate":false,"speed":1,"elements":{"eXPjc1zqsRL4":{"transform":{"data":{"o":{"x":50.207718,"y":54.27694,"type":"corner"},"t":{"x":-50.207716,"y":-54.276937}},"keys":{"r":[{"t":0,"v":-180.667626,"e":[0.445,0.05,0.55,0.95]},{"t":2000,"v":2.001671}]}},"opacity":[{"t":1500,"v":0,"e":[0.445,0.05,0.55,0.95]},{"t":2000,"v":1}]},"eXPjc1zqsRL12":{"transform":{"data":{"o":{"x":49.175232,"y":59.231294,"type":"corner"},"t":{"x":-49.175223,"y":-59.231292}},"keys":{"r":[{"t":0,"v":180.844027,"e":[0.445,0.05,0.55,0.95]},{"t":2000,"v":0.969489}]}},"opacity":[{"t":1500,"v":0,"e":[0.445,0.05,0.55,0.95]},{"t":2000,"v":1}]},"eXPjc1zqsRL19":{"transform":{"data":{"t":{"x":-49.944668,"y":-38.98526}},"keys":{"o":[{"t":0,"v":{"x":49.944668,"y":60.98526,"type":"corner"},"e":[0.445,0.05,0.55,0.95]},{"t":2000,"v":{"x":49.944668,"y":37.98526,"type":"corner"}}]}},"opacity":[{"t":0,"v":0,"e":[0.445,0.05,0.55,0.95]},{"t":2000,"v":1}]},"eXPjc1zqsRL37":{"transform":{"data":{"o":{"x":30.889086,"y":62.349785,"type":"corner"},"t":{"x":-30.889084,"y":-62.349785}},"keys":{"s":[{"t":0,"v":{"x":0.221971,"y":0.221971},"e":[0.445,0.05,0.55,0.95]},{"t":2000,"v":{"x":1.325661,"y":1.325661}}]}},"opacity":[{"t":0,"v":0,"e":[0.445,0.05,0.55,0.95]},{"t":2000,"v":1}]},"eXPjc1zqsRL38":{"transform":{"data":{"o":{"x":30.889086,"y":58.262981,"type":"corner"},"t":{"x":-30.889082,"y":-58.262979}},"keys":{"s":[{"t":0,"v":{"x":0.209702,"y":0.209702},"e":[0.445,0.05,0.55,0.95]},{"t":2000,"v":{"x":1.275797,"y":1.275797}}]}},"opacity":[{"t":0,"v":0,"e":[0.445,0.05,0.55,0.95]},{"t":2000,"v":1}]},"eXPjc1zqsRL39":{"transform":{"data":{"o":{"x":30.644537,"y":54.3049,"type":"corner"},"t":{"x":-30.64453,"y":-54.304895}},"keys":{"s":[{"t":0,"v":{"x":0.217839,"y":0.217839},"e":[0.445,0.05,0.55,0.95]},{"t":2000,"v":{"x":1.116373,"y":1.116373}}]}},"opacity":[{"t":0,"v":0},{"t":2000,"v":1}]},"eXPjc1zqsRL40":{"transform":{"data":{"o":{"x":31.116949,"y":50.698895,"type":"corner"},"t":{"x":-31.116946,"y":-50.698891}},"keys":{"s":[{"t":0,"v":{"x":0.211967,"y":0.211967},"e":[0.445,0.05,0.55,0.95]},{"t":2000,"v":{"x":0.997235,"y":0.997235}}]}},"opacity":[{"t":0,"v":0},{"t":2000,"v":1}]},"eXPjc1zqsRL42":{"transform":{"data":{"o":{"x":69.220116,"y":58.690121,"type":"corner"},"t":{"x":-69.220113,"y":-58.690111}},"keys":{"s":[{"t":0,"v":{"x":0.127797,"y":0.127797},"e":[0.445,0.05,0.55,0.95]},{"t":2000,"v":{"x":1.000391,"y":1.000391}}]}},"opacity":[{"t":0,"v":0},{"t":2000,"v":1}]},"eXPjc1zqsRL43":{"transform":{"data":{"o":{"x":69.220116,"y":54.639278,"type":"corner"},"t":{"x":-69.220113,"y":-54.639273}},"keys":{"s":[{"t":0,"v":{"x":0.199365,"y":0.199365},"e":[0.445,0.05,0.55,0.95]},{"t":2000,"v":{"x":1.001761,"y":1.001761}}]}},"opacity":[{"t":0,"v":0},{"t":2000,"v":1}]},"eXPjc1zqsRL44":{"transform":{"data":{"o":{"x":69.220116,"y":50.698895,"type":"corner"},"t":{"x":-69.220115,"y":-50.698895}},"keys":{"s":[{"t":0,"v":{"x":0.250913,"y":0.250913},"e":[0.445,0.05,0.55,0.95]},{"t":2000,"v":{"x":1.002026,"y":1.002026}}]}},"opacity":[{"t":0,"v":0},{"t":2000,"v":1}]},"eXPjc1zqsRL45":{"transform":{"data":{"o":{"x":68.467781,"y":47.037529,"type":"corner"},"t":{"x":-68.467778,"y":-47.037529}},"keys":{"s":[{"t":0,"v":{"x":0.243508,"y":0.243508},"e":[0.445,0.05,0.55,0.95]},{"t":2000,"v":{"x":1.002536,"y":1.002536}}]}},"opacity":[{"t":0,"v":0},{"t":2000,"v":1}]}}}],"options":{"start":"load","hover":null,"click":null,"scroll":null,"font":"embed","exportedIds":"unique","svgFormat":"animated","title":"Frame2 (1)"},"animationSettings":{"duration":2000,"direction":1,"iterations":1,"fill":1,"alternate":false,"speed":1}})]]></script></svg>