<svg width="32" height="32" viewBox="0 0 27 17" fill="none" xmlns="http://www.w3.org/2000/svg">
<g clip-path="url(#clip0)">
<path d="M27 6.367H25.7279V0H27V6.367ZM24.4321 6.367H23.136V0H24.4321V6.367ZM21.864 6.367H20.5679V0H21.864V6.367ZM19.2961 6.367H18V0H19.2961V6.367ZM16.7279 6.367H15.4321V0H16.7279V6.367ZM14.136 6.367H12.864V0H14.136V6.367ZM11.5679 6.367H10.2961V0H11.5679V6.367ZM9 6.367H7.70391V0H9V6.367ZM6.43213 6.367H5.13604V0H6.43213V6.367ZM3.86397 6.367H2.56787V0H3.86397V6.367ZM1.27207 6.367H0V0H1.27207V6.367Z" fill="#520091"/>
<path d="M27 16.9672H25.7279V10.6006H27V16.9672ZM24.4321 16.9672H23.136V10.6006H24.4321V16.9672ZM21.864 16.9672H20.5679V10.6006H21.864V16.9672ZM19.2961 16.9672H18V10.6006H19.2961V16.9672ZM16.7279 16.9672H15.4321V10.6006H16.7279V16.9672ZM14.136 16.9672H12.864V10.6006H14.136V16.9672ZM11.5679 16.9672H10.2961V10.6006H11.5679V16.9672ZM9 16.9672H7.70391V10.6006H9V16.9672ZM6.43213 16.9672H5.13604V10.6006H6.43213V16.9672ZM3.86397 16.9672H2.56787V10.6006H3.86397V16.9672ZM1.27207 16.9672H0V10.6006H1.27207V16.9672Z" fill="#520091"/>
</g>
<defs>
<clipPath id="clip0">
<rect width="27" height="17" fill="white"/>
</clipPath>
</defs>
</svg>
