<svg width="37" height="37" viewBox="0 0 37 37" fill="none" xmlns="http://www.w3.org/2000/svg">
<path d="M18.5001 26.1176C14.4192 26.1176 10.8824 22.8529 10.8824 18.5C10.8824 14.4191 14.1472 10.8823 18.5001 10.8823C22.581 10.8823 26.1177 14.1471 26.1177 18.5C26.1177 22.5809 22.581 26.1176 18.5001 26.1176Z" fill="#520091"/>
<path fill-rule="evenodd" clip-rule="evenodd" d="M27.75 0H9.25C7.07353 0.272059 5.9853 0.544118 5.16912 0.816177C4.08088 1.08824 3.26471 1.63235 2.44853 2.44853C1.80269 3.0944 1.49755 3.74027 1.12875 4.5208C1.03154 4.72648 0.929626 4.94222 0.816177 5.16912C0.77409 5.29535 0.725501 5.42812 0.673401 5.57041C0.388801 6.34795 0 7.41034 0 9.25V27.75C0.272059 29.9265 0.544118 31.0147 0.816177 31.8309C1.08824 32.9191 1.63235 33.7353 2.44853 34.5515C3.0944 35.1973 3.74027 35.5023 4.5208 35.8712C4.72675 35.9686 4.94195 36.0704 5.16912 36.1838C5.29535 36.226 5.42812 36.2744 5.57041 36.3267C6.34795 36.6112 7.41034 37 9.25 37H27.75C29.9265 36.7279 31.0147 36.4559 31.8309 36.1838C32.9191 35.9118 33.7353 35.3676 34.5515 34.5515C35.1973 33.9056 35.5023 33.2597 35.8712 32.4792C35.9686 32.2733 36.0704 32.0581 36.1838 31.8309C36.226 31.7046 36.2744 31.5719 36.3267 31.4296C36.6112 30.6521 37 29.5897 37 27.75V9.25C36.7279 7.07353 36.4559 5.9853 36.1838 5.16912C35.9118 4.08088 35.3676 3.26471 34.5515 2.44853C33.9056 1.80269 33.2597 1.49755 32.4792 1.12872C32.2735 1.03159 32.0575 0.929544 31.8309 0.816177C31.7046 0.77409 31.5719 0.725473 31.4296 0.673401C30.6521 0.388773 29.5897 0 27.75 0ZM18.5 6.80147C11.9706 6.80147 6.80147 11.9706 6.80147 18.5C6.80147 25.0294 11.9706 30.1985 18.5 30.1985C25.0294 30.1985 30.1985 25.0294 30.1985 18.5C30.1985 11.9706 25.0294 6.80147 18.5 6.80147ZM33.1912 6.52941C33.1912 8.03199 31.9732 9.25 30.4706 9.25C28.968 9.25 27.75 8.03199 27.75 6.52941C27.75 5.02683 28.968 3.80883 30.4706 3.80883C31.9732 3.80883 33.1912 5.02683 33.1912 6.52941Z" fill="#520091"/>
</svg>
