<svg width="342" height="505" viewBox="0 0 342 505" fill="none" xmlns="http://www.w3.org/2000/svg">
<path d="M265.133 151.279V252.343H253.021V236.718C253.021 228.82 250.523 223.05 245.526 219.407C240.53 215.765 231.316 213.943 217.885 213.943H211.05V266.357C211.002 269.79 211.157 273.223 211.515 276.638C211.588 277.744 211.922 278.816 212.49 279.767C213.059 280.717 213.844 281.517 214.783 282.102C217.425 283.467 220.341 284.213 223.312 284.284C227.149 284.6 232.575 284.751 239.621 284.751V347.761H103.574V284.751C110.619 284.751 116.001 284.595 119.718 284.284C122.595 284.221 125.415 283.473 127.947 282.102C128.847 281.489 129.596 280.679 130.136 279.732C130.677 278.785 130.994 277.727 131.065 276.638C131.423 273.223 131.578 269.79 131.53 266.357V213.943H125.009C111.549 213.943 102.33 215.765 97.3536 219.407C92.377 223.05 89.8787 228.82 89.8587 236.718V252.312H77.7471V151.279H265.133Z" fill="#EDDFD0"/>
<path d="M302.322 117.064C275.9 90.7023 232.37 77.5211 171.732 77.5211C110.774 77.5211 67.0641 90.5066 40.6023 116.477C14.1406 142.448 0.924661 183.336 0.954641 239.141C0.954641 295.739 14.1706 337.696 40.6023 365.012C67.0341 392.327 110.744 405.99 171.732 406C232.32 406 275.835 392.337 302.277 365.012C328.719 337.686 341.94 295.729 341.94 239.141C341.97 184.129 328.764 143.437 302.322 117.064ZM282.655 346.497C260.181 369.708 223.206 381.319 171.732 381.329C119.908 381.329 82.7682 369.718 60.3137 346.497C37.8592 323.276 26.6219 287.621 26.6019 239.533C26.6019 192.117 37.8392 157.375 60.3137 135.308C82.7882 113.241 119.928 102.202 171.732 102.192C223.226 102.192 260.201 113.387 282.655 135.775C305.11 158.163 316.342 192.744 316.352 239.518C316.362 287.626 305.13 323.286 282.655 346.497Z" fill="#EDDFD0"/>
<path d="M239.35 57.7721C238.68 57.7678 238.013 57.6664 237.372 57.471L174.73 38.7756C173.664 38.458 172.559 38.2958 171.447 38.294C170.336 38.2958 169.23 38.458 168.164 38.7756L105.553 57.471C104.911 57.6677 104.245 57.7691 103.574 57.7721C101.762 57.7405 100.035 56.9955 98.7651 55.6975C97.495 54.3996 96.7834 52.6525 96.7837 50.8328V27.1851C96.7907 25.6945 97.2734 24.2454 98.1611 23.0506C99.0487 21.8558 100.294 20.9783 101.715 20.5469L169.559 0.286015C170.2 0.0931788 170.867 -0.00319672 171.537 1.67454e-05C172.202 -0.00215394 172.864 0.0942152 173.501 0.286015L241.359 20.5469C242.779 20.9804 244.023 21.8584 244.91 23.0528C245.798 24.2471 246.281 25.6951 246.291 27.1851V50.8328C246.291 51.7466 246.111 52.6514 245.762 53.4953C245.413 54.3392 244.901 55.1055 244.256 55.7503C243.611 56.3951 242.846 56.9056 242.004 57.2525C241.162 57.5995 240.26 57.776 239.35 57.7721Z" fill="#EDDFD0"/>
<g clip-path="url(#clip0)">
<path d="M274 434.976C274.034 435.678 273.903 436.377 273.616 437.018C273.33 437.659 272.897 438.223 272.352 438.664C271.254 439.54 269.572 439.98 267.306 439.986C265.513 440.113 263.729 439.649 262.224 438.664C261.668 438.231 261.224 437.669 260.929 437.027C260.635 436.385 260.499 435.682 260.533 434.976C260.492 434.256 260.625 433.536 260.919 432.878C261.213 432.219 261.661 431.642 262.224 431.193C263.729 430.208 265.513 429.744 267.306 429.871C269.572 429.871 271.254 430.312 272.352 431.193C272.904 431.65 273.34 432.23 273.626 432.888C273.912 433.545 274.04 434.26 274 434.976ZM261.721 434.976C261.721 436.559 262.259 437.586 263.325 438.16C264.572 438.732 265.935 439.006 267.306 438.96C268.651 439 269.987 438.726 271.208 438.16C272.274 437.62 272.812 436.559 272.812 434.976C272.812 433.393 272.274 432.306 271.208 431.741C269.997 431.137 268.658 430.838 267.306 430.871C265.928 430.833 264.562 431.132 263.325 431.741C262.224 432.367 261.721 433.402 261.721 434.976ZM265.45 437.525H264.175C264.227 436.655 264.262 435.785 264.262 434.915C264.262 434.046 264.262 433.176 264.175 432.306C264.725 432.241 265.278 432.212 265.831 432.219H267.479C268.215 432.166 268.95 432.329 269.595 432.689C269.819 432.843 269.999 433.054 270.118 433.299C270.236 433.545 270.289 433.817 270.271 434.089C270.281 434.458 270.161 434.818 269.933 435.107C269.671 435.413 269.313 435.621 268.919 435.698C269.144 435.872 269.465 436.098 269.89 436.377C270.315 436.655 270.757 436.977 271.208 437.316V437.49H269.474C269.199 437.268 268.944 437.024 268.71 436.759C268.405 436.433 268.065 436.141 267.696 435.89H265.328C265.325 436.18 265.34 436.471 265.372 436.759C265.433 437.055 265.45 437.316 265.45 437.586V437.525ZM267.392 433.106H266.248C265.98 433.101 265.712 433.128 265.45 433.185C265.389 433.494 265.359 433.809 265.363 434.124V434.994C265.641 434.994 265.97 434.994 266.334 434.994C266.699 434.994 267.08 435.037 267.479 435.037C267.882 435.055 268.284 434.999 268.667 434.872C268.808 434.805 268.925 434.695 269 434.557C269.074 434.42 269.104 434.262 269.083 434.107C269.099 433.941 269.063 433.774 268.981 433.629C268.899 433.484 268.774 433.369 268.624 433.298C268.24 433.16 267.833 433.101 267.427 433.124L267.392 433.106Z" fill="#EDDFD0"/>
<path d="M124.25 432.019V452.632H121.744V449.458C121.8 448.788 121.69 448.116 121.423 447.5C121.157 446.884 120.743 446.343 120.218 445.926C119.203 445.178 117.322 444.813 114.573 444.813H113.177V455.502C113.169 456.202 113.201 456.902 113.272 457.599C113.287 457.824 113.355 458.043 113.471 458.236C113.587 458.43 113.748 458.593 113.94 458.712C114.477 458.989 115.07 459.14 115.674 459.155C116.454 459.225 117.564 459.251 119.004 459.251V472.106H91.2549V459.251C92.6857 459.251 93.787 459.251 94.5501 459.155C95.1379 459.143 95.7144 458.991 96.2324 458.712C96.4153 458.587 96.5674 458.421 96.677 458.229C96.7867 458.036 96.8511 457.82 96.8654 457.599C96.9368 456.902 96.9687 456.202 96.9607 455.502V444.813H95.6253C92.8764 444.813 90.9947 445.178 89.9801 445.926C89.456 446.344 89.0432 446.884 88.7784 447.501C88.5135 448.117 88.405 448.789 88.4626 449.458V452.632H85.9912V432.019H124.25Z" fill="#EDDFD0"/>
<path d="M162.379 457.92C162.379 462.559 161.194 466.195 158.824 468.827C156.454 471.459 152.309 472.764 146.389 472.741C140.168 472.741 135.304 471.372 131.794 468.636C128.285 465.899 126.531 461.182 126.531 454.485C126.531 448.246 128.063 443.738 131.127 440.96C134.191 438.183 138.92 436.794 145.313 436.794C148.101 436.722 150.884 437.086 153.56 437.873C155.518 438.458 157.317 439.481 158.824 440.864C160.127 442.119 161.094 443.684 161.633 445.413C162.192 447.224 162.47 449.11 162.457 451.006V453.363C162.457 454.172 162.457 454.972 162.396 455.781H140.717C141.012 457.857 141.825 459.266 143.154 460.008C144.906 460.842 146.837 461.225 148.773 461.121C151.479 461.121 153.309 460.843 154.263 460.251C154.688 460.037 155.044 459.704 155.285 459.292C155.527 458.88 155.644 458.407 155.624 457.929L162.379 457.92ZM145.157 447.231C144.524 447.198 143.891 447.306 143.305 447.548C142.718 447.79 142.193 448.16 141.767 448.631C140.9 449.562 140.527 451.11 140.527 453.276H149.536C149.496 450.725 149.083 449.081 148.296 448.344C147.872 447.96 147.376 447.664 146.838 447.473C146.299 447.282 145.728 447.2 145.157 447.231Z" fill="#EDDFD0"/>
<path d="M191.689 436.855V451.502C189.889 451.481 188.089 451.553 186.296 451.719C185.219 451.798 184.165 452.069 183.182 452.519C182.537 452.819 182.028 453.354 181.76 454.015C181.502 454.761 181.382 455.548 181.405 456.337V457.207C181.384 457.612 181.486 458.013 181.696 458.359C181.907 458.705 182.216 458.98 182.584 459.147C183.365 459.553 185.151 459.755 187.943 459.755V472.097H165.042V459.764C166.264 459.764 167.053 459.451 167.392 458.842C167.785 457.93 167.958 456.938 167.894 455.946V453.528C167.977 452.504 167.804 451.476 167.392 450.536C167.053 449.988 166.264 449.71 165.042 449.71V437.429H179.506V452.371H180.902C180.991 449.672 181.281 446.983 181.769 444.326C182.046 442.629 182.685 441.013 183.642 439.586C184.43 438.507 185.562 437.73 186.851 437.385C188.433 436.997 190.06 436.819 191.689 436.855Z" fill="#EDDFD0"/>
<path d="M220.739 436.855V451.502C218.939 451.481 217.138 451.553 215.345 451.719C214.271 451.798 213.22 452.069 212.241 452.519C211.595 452.822 211.085 453.355 210.81 454.015C210.556 454.762 210.438 455.549 210.463 456.337V457.207C210.443 457.611 210.544 458.011 210.753 458.356C210.961 458.702 211.268 458.977 211.634 459.147C212.414 459.553 214.201 459.756 216.993 459.756V472.097H194.091V459.764C195.323 459.764 196.103 459.451 196.441 458.842C196.839 457.931 197.014 456.938 196.953 455.946V453.528C197.034 452.504 196.858 451.475 196.441 450.536C196.103 449.988 195.323 449.71 194.091 449.71V437.429H208.556V452.371H209.952C210.045 449.672 210.335 446.983 210.819 444.326C211.092 442.628 211.731 441.011 212.692 439.586C213.478 438.509 214.607 437.733 215.892 437.385C217.477 436.997 219.107 436.819 220.739 436.855Z" fill="#EDDFD0"/>
<path d="M260.195 454.485C260.195 460.677 258.75 465.27 255.859 468.262C252.968 471.254 248.202 472.747 241.56 472.741C234.871 472.741 230.081 471.248 227.191 468.262C224.3 465.276 222.855 460.683 222.855 454.485C222.855 448.368 224.3 443.891 227.191 441.056C230.081 438.22 234.871 436.8 241.56 436.794C248.19 436.794 252.957 438.244 255.859 441.143C258.761 444.042 260.206 448.489 260.195 454.485ZM246.494 454.415C246.494 451.997 246.147 450.29 245.453 449.292C244.751 448.301 243.45 447.796 241.551 447.796C239.652 447.796 238.282 448.301 237.579 449.292C236.877 450.284 236.539 451.997 236.539 454.415C236.539 456.833 236.886 458.703 237.579 459.886C238.273 461.069 239.6 461.669 241.551 461.669C243.502 461.669 244.751 461.078 245.453 459.886C246.156 458.694 246.494 456.877 246.494 454.415Z" fill="#EDDFD0"/>
<path d="M250.951 432.019C250.857 432.018 250.763 432.003 250.673 431.976L242.002 429.366C241.853 429.321 241.698 429.298 241.542 429.297C241.387 429.298 241.232 429.321 241.083 429.366L232.411 431.976C232.321 432.003 232.228 432.018 232.134 432.019C231.88 432.017 231.637 431.914 231.459 431.733C231.28 431.552 231.18 431.308 231.18 431.054V427.775C231.183 427.568 231.251 427.368 231.374 427.203C231.497 427.037 231.668 426.915 231.865 426.853L241.291 424.043C241.381 424.016 241.474 424.002 241.568 424C241.659 424.001 241.75 424.016 241.837 424.043L251.272 426.853C251.468 426.915 251.64 427.037 251.763 427.203C251.886 427.368 251.954 427.568 251.957 427.775V431.054C251.957 431.184 251.931 431.313 251.88 431.433C251.829 431.554 251.754 431.662 251.66 431.752C251.566 431.842 251.454 431.913 251.333 431.958C251.211 432.004 251.081 432.025 250.951 432.019Z" fill="#EDDFD0"/>
<path d="M91.5237 498.746C91.5237 500.921 93.4055 502.817 96.8915 502.817C100.516 502.817 101.964 501.217 101.964 499.181C101.964 497.442 100.811 496.268 98.4957 495.833L94.5761 495.102C91.3589 494.493 89.642 492.78 89.642 489.884C89.642 486.535 92.2434 484.065 96.5792 484.065C101.227 484.065 104.124 486.831 104.124 490.319H101.8C101.8 488.136 99.9091 486.248 96.5966 486.248C93.5529 486.248 91.9573 487.848 91.9573 489.884C91.9573 491.484 93.0066 492.676 95.2959 493.084L98.487 493.667C102.545 494.398 104.288 496.137 104.288 499.199C104.288 502.547 101.687 505.017 96.8915 505.017C92.0961 505.017 89.1997 502.104 89.1997 498.764L91.5237 498.746Z" fill="#EDDFD0"/>
<path d="M110.09 494.52C110.09 488.266 114.426 484.082 119.811 484.082C125.196 484.082 129.532 488.301 129.532 494.52C129.532 500.738 125.196 505 119.811 505C114.426 505 110.09 500.782 110.09 494.52ZM127.208 494.52C127.208 489.571 123.869 486.231 119.811 486.231C115.752 486.231 112.405 489.571 112.405 494.52C112.405 499.468 115.744 502.817 119.811 502.817C123.878 502.817 127.208 499.468 127.208 494.52Z" fill="#EDDFD0"/>
<path d="M136.191 484.335H138.515V502.53H148.67V504.713H136.191V484.335Z" fill="#EDDFD0"/>
<path d="M152.441 494.52C152.441 488.266 156.777 484.082 162.162 484.082C167.547 484.082 171.883 488.301 171.883 494.52C171.883 500.738 167.547 505 162.162 505C156.777 505 152.441 500.782 152.441 494.52ZM169.559 494.52C169.559 489.571 166.221 486.231 162.162 486.231C158.104 486.231 154.765 489.571 154.765 494.52C154.765 499.468 158.104 502.817 162.162 502.817C166.221 502.817 169.559 499.468 169.559 494.52Z" fill="#EDDFD0"/>
<path d="M185.22 484.335H187.692L194.074 502.234H194.655L201.037 484.335H203.5L196.103 504.713H192.634L185.22 484.335Z" fill="#EDDFD0"/>
<path d="M209.006 484.335H211.33V504.713H209.006V484.335Z" fill="#EDDFD0"/>
<path d="M216.837 484.335H219.308L225.691 502.234H226.272L232.654 484.335H235.125L227.72 504.713H224.251L216.837 484.335Z" fill="#EDDFD0"/>
<path d="M239.175 494.52C239.175 488.266 243.511 484.082 248.896 484.082C254.281 484.082 258.625 488.301 258.625 494.52C258.625 500.738 254.289 505 248.896 505C243.502 505 239.175 500.782 239.175 494.52ZM256.301 494.52C256.301 489.571 252.963 486.231 248.896 486.231C244.829 486.231 241.499 489.571 241.499 494.52C241.499 499.468 244.881 502.817 248.896 502.817C252.911 502.817 256.301 499.468 256.301 494.52Z" fill="#EDDFD0"/>
</g>
<defs>
<clipPath id="clip0">
<rect width="188" height="81" fill="white" transform="translate(86 424)"/>
</clipPath>
</defs>
</svg>
