<svg viewBox="0 0 260 96" fill="none" xmlns="http://www.w3.org/2000/svg">
<g clip-path="url(#clip0)">
<path d="M84.1292 77.38C84.1292 78.4116 85.1512 79.3615 86.8066 79.3615C88.625 79.3615 89.3147 78.6506 89.3147 77.7008C89.3147 76.9082 88.6877 76.3546 87.4336 76.1155L85.3017 75.7192C83.5711 75.4047 82.6995 74.2976 82.6995 72.7941C82.6995 70.9762 84.1981 69.5482 86.6436 69.5482C89.4025 69.5482 90.8196 71.1334 90.8196 73.1149H89.1705C89.1705 72.0833 88.2174 71.1334 86.6624 71.1334C85.1073 71.1334 84.3737 71.926 84.3737 72.7941C84.3737 73.505 84.8502 74.0522 86.0291 74.2976L87.766 74.6121C89.9731 75.0084 91.0015 75.9583 91.0015 77.7008C91.0015 79.4433 89.5781 80.9404 86.8191 80.9404C84.0602 80.9404 82.4863 79.3615 82.4863 77.38H84.1292Z" fill="#EDDFD0"/>
<path d="M93.9736 75.2475C93.9736 71.8443 96.3438 69.5482 99.2595 69.5482C102.175 69.5482 104.545 71.8443 104.545 75.2475C104.545 78.6506 102.175 80.9089 99.2595 80.9089C96.3438 80.9089 93.9736 78.6506 93.9736 75.2475ZM95.629 75.2475C95.629 77.7637 97.2091 79.3615 99.2595 79.3615C101.31 79.3615 102.884 77.7763 102.884 75.2475C102.884 72.7187 101.31 71.1334 99.2595 71.1334C97.2091 71.1334 95.629 72.7124 95.629 75.2475Z" fill="#EDDFD0"/>
<path d="M108.007 69.7118H109.662V79.2042H115.03V80.7831H108.007V69.7118Z" fill="#EDDFD0"/>
<path d="M116.992 75.2475C116.992 71.8443 119.362 69.5482 122.278 69.5482C125.194 69.5482 127.564 71.8443 127.564 75.2475C127.564 78.6506 125.194 80.9089 122.278 80.9089C119.362 80.9089 116.992 78.6506 116.992 75.2475ZM118.648 75.2475C118.648 77.7637 120.228 79.3615 122.278 79.3615C124.328 79.3615 125.902 77.7763 125.902 75.2475C125.902 72.7187 124.328 71.1334 122.278 71.1334C120.228 71.1334 118.648 72.7124 118.648 75.2475Z" fill="#EDDFD0"/>
<path d="M134.725 69.7118H136.543L139.678 78.8897H139.992L143.127 69.7118H144.939L141.076 80.7831H138.568L134.725 69.7118Z" fill="#EDDFD0"/>
<path d="M147.817 69.7118H149.472V80.7831H147.817V69.7118Z" fill="#EDDFD0"/>
<path d="M152.338 69.7118H154.15L157.285 78.8897H157.605L160.74 69.7118H162.552L158.69 80.7831H156.182L152.338 69.7118Z" fill="#EDDFD0"/>
<path d="M164.603 75.2475C164.603 71.8443 166.973 69.5482 169.889 69.5482C172.805 69.5482 175.175 71.8443 175.175 75.2475C175.175 78.6506 172.805 80.9089 169.889 80.9089C166.973 80.9089 164.603 78.6506 164.603 75.2475ZM166.258 75.2475C166.258 77.7637 167.839 79.3615 169.889 79.3615C171.939 79.3615 173.513 77.7763 173.513 75.2475C173.513 72.7187 171.939 71.1334 169.889 71.1334C167.839 71.1334 166.258 72.7124 166.258 75.2475Z" fill="#EDDFD0"/>
<path d="M130.003 96C95.3971 96 62.8477 91.0682 38.362 82.123C13.6255 73.0835 0 60.9617 0 47.9968C0 35.032 13.6255 22.9165 38.362 13.8769C62.8477 4.9255 95.4222 0 130.003 0C164.584 0 197.152 4.9255 221.644 13.8769C246.381 22.9165 260.006 35.032 260.006 47.9968C260.006 60.9617 246.393 73.0835 221.644 82.123C197.152 91.0682 164.609 96 130.003 96ZM130.003 1.54745C95.5726 1.54745 63.2114 6.44152 38.8887 15.3364C14.8106 24.1431 1.54878 35.7366 1.54878 47.9968C1.54878 60.2571 14.8106 71.8632 38.8887 80.6699C63.2114 89.5585 95.5726 94.4588 130.003 94.4588C164.434 94.4588 196.789 89.5522 221.118 80.6699C245.196 71.8632 258.457 60.2697 258.457 48.0031C258.457 35.7366 245.196 24.1368 221.118 15.3426C196.789 6.44153 164.434 1.54745 130.003 1.54745Z" fill="#EDDFD0"/>
<path d="M218.691 25.4201C218.724 26.0834 218.599 26.7451 218.328 27.3509C218.057 27.9567 217.646 28.4893 217.13 28.905C216.095 29.7354 214.509 30.1632 212.377 30.1632C210.245 30.1632 208.646 29.7543 207.58 28.905C207.055 28.495 206.637 27.9642 206.359 27.3577C206.082 26.7511 205.954 26.0865 205.987 25.4201C205.948 24.74 206.072 24.0604 206.349 23.4385C206.626 22.8166 207.048 22.2708 207.58 21.847C208.646 21.0083 210.245 20.5889 212.377 20.5889C214.509 20.5889 216.093 21.0083 217.13 21.847C217.652 22.2768 218.066 22.8245 218.338 23.4455C218.609 24.0665 218.73 24.7431 218.691 25.4201ZM207.103 25.4201C207.103 26.9109 207.611 27.9363 208.621 28.4207C209.799 28.9653 211.087 29.2259 212.383 29.1818C213.65 29.2182 214.908 28.9576 216.057 28.4207C217.067 27.9174 217.575 26.9109 217.575 25.4201C217.575 23.9292 217.067 22.9039 216.057 22.3692C214.916 21.806 213.654 21.5318 212.383 21.5703C211.083 21.525 209.791 21.7993 208.621 22.3692C207.613 22.9018 207.108 23.9187 207.103 25.4201ZM210.652 27.8293H209.398C209.448 27.0242 209.474 26.2127 209.474 25.3823C209.474 24.552 209.474 23.7405 209.398 22.9353C209.915 22.8801 210.434 22.8549 210.953 22.8598H212.533C213.229 22.8073 213.924 22.9604 214.534 23.3002C214.874 23.5632 215.098 23.9496 215.158 24.3765C215.218 24.8033 215.108 25.2366 214.854 25.5836C214.606 25.8731 214.268 26.0703 213.894 26.1435C214.107 26.307 214.415 26.5167 214.816 26.7725C215.211 27.043 215.625 27.3324 216.07 27.6532V27.8293H214.471C214.212 27.6234 213.973 27.3939 213.756 27.1437C213.465 26.8334 213.144 26.5531 212.797 26.307H210.558C210.558 26.5713 210.558 26.8417 210.596 27.1059C210.634 27.3701 210.652 27.6092 210.652 27.8293ZM212.49 23.6587H211.411C211.156 23.6534 210.901 23.6809 210.652 23.7405C210.595 24.0304 210.568 24.3256 210.571 24.6212V25.4264C210.834 25.4264 211.141 25.4264 211.486 25.4641C211.831 25.5018 212.195 25.5018 212.565 25.5018C212.945 25.5183 213.326 25.465 213.687 25.3446C213.822 25.2827 213.934 25.1791 214.006 25.049C214.078 24.9188 214.107 24.7689 214.089 24.6212C214.103 24.4643 214.068 24.3069 213.99 24.1706C213.911 24.0343 213.792 23.9257 213.65 23.86C213.272 23.707 212.866 23.6362 212.458 23.6524L212.49 23.6587Z" fill="#EDDFD0"/>
<path d="M77.4072 22.6146V42.0712H75.0684V39.0706C75.0684 37.5483 74.5897 36.437 73.6325 35.7366C72.6794 35.0384 70.8986 34.6861 68.3089 34.6861H66.9922V44.751C66.9813 45.4127 67.0106 46.0744 67.0799 46.7325C67.0942 46.9449 67.1585 47.1508 67.2675 47.3334C67.3765 47.516 67.5271 47.6701 67.707 47.783C68.2181 48.0461 68.7818 48.1902 69.3561 48.2045C70.096 48.2674 71.141 48.2988 72.4913 48.2988V60.427H46.2812V48.3177C47.6356 48.3177 48.6765 48.2862 49.4164 48.2233C49.9711 48.2115 50.5149 48.067 51.0028 47.8019C51.1813 47.6875 51.3308 47.5331 51.4396 47.3507C51.5485 47.1684 51.6136 46.9632 51.6298 46.7514C51.696 46.093 51.7253 45.4315 51.7176 44.7698V34.705H50.4635C47.8676 34.705 46.091 35.0551 45.1337 35.7555C44.1764 36.4558 43.6978 37.5672 43.6978 39.0895V42.0901H41.3652V22.6146H77.4072Z" fill="#EDDFD0"/>
<path d="M113.374 47.0533C113.374 51.4567 112.258 54.8892 110.026 57.3509C107.794 59.8126 103.883 61.0435 98.2941 61.0435C92.4418 61.0435 87.8435 59.7518 84.4993 57.1685C81.1551 54.5852 79.4998 50.1336 79.5332 43.8137C79.5332 37.9425 80.9796 33.688 83.8723 31.0501C86.765 28.4123 91.2253 27.1018 97.2532 27.1186C99.8819 27.0524 102.505 27.3961 105.028 28.1376C106.877 28.6909 108.577 29.6565 110.001 30.9621C111.221 32.1397 112.127 33.6063 112.634 35.2271C113.161 36.9383 113.423 38.7203 113.412 40.5111V42.7317C113.412 43.4929 113.412 44.254 113.349 45.0152H92.9079C93.1838 46.9715 93.955 48.3051 95.2091 49.0034C96.4632 49.7016 98.2314 50.0539 100.508 50.0539C103.06 50.0539 104.79 49.7897 105.687 49.2487C106.089 49.0463 106.425 48.7313 106.653 48.3417C106.881 47.9522 106.992 47.5047 106.972 47.0533H113.374ZM97.1592 36.9884C96.561 36.9577 95.9635 37.0602 95.4095 37.2886C94.8555 37.517 94.3588 37.8656 93.955 38.3094C93.1775 39.1901 92.7887 40.6579 92.7887 42.7128H101.285C101.247 40.3098 100.859 38.7624 100.119 38.0578C99.314 37.3176 98.2502 36.9264 97.1592 36.9696V36.9884Z" fill="#EDDFD0"/>
<path d="M141.052 27.2003V41.0081C139.354 40.9898 137.657 41.0591 135.966 41.2157C134.951 41.2871 133.956 41.5429 133.032 41.9705C132.424 42.2541 131.945 42.7572 131.69 43.3796C131.45 44.0835 131.337 44.825 131.358 45.5687V46.4116C131.336 46.7937 131.43 47.1733 131.628 47.5003C131.827 47.8272 132.119 48.0859 132.467 48.2422C133.199 48.628 134.884 48.8188 137.521 48.8146V60.4647H115.889V48.7958C117.047 48.7958 117.787 48.5064 118.108 47.9277C118.478 47.0655 118.642 46.1282 118.585 45.1913V42.9267C118.659 41.9623 118.495 40.9945 118.108 40.1085C117.789 39.5864 117.049 39.3285 115.889 39.3285V27.7161H129.539V41.8321H130.856C130.949 39.2822 131.228 36.7424 131.69 34.2331C131.953 32.6324 132.556 31.1071 133.458 29.7606C134.202 28.7459 135.268 28.0159 136.48 27.691C137.976 27.326 139.513 27.161 141.052 27.2003Z" fill="#EDDFD0"/>
<path d="M168.441 27.2003V41.008C166.743 40.9896 165.046 41.0589 163.355 41.2156C162.34 41.2862 161.345 41.542 160.421 41.9705C159.813 42.2558 159.332 42.7581 159.073 43.3795C158.835 44.084 158.725 44.8253 158.747 45.5687V46.4116C158.724 46.7929 158.818 47.1721 159.015 47.4989C159.212 47.8258 159.503 48.0849 159.85 48.2422C160.59 48.628 162.277 48.8188 164.91 48.8146V60.4647H143.303V48.7957C144.456 48.7957 145.184 48.5064 145.516 47.9276C145.889 47.0664 146.053 46.1284 145.993 45.1912V42.9266C146.07 41.9621 145.906 40.9935 145.516 40.1085C145.196 39.5864 144.456 39.3285 143.303 39.3285V27.7161H156.947V41.8321H158.264C158.359 39.2819 158.64 36.7422 159.104 34.2331C159.361 32.6307 159.965 31.1041 160.872 29.7605C161.613 28.7459 162.677 28.0158 163.888 27.691C165.378 27.3288 166.908 27.1638 168.441 27.2003Z" fill="#EDDFD0"/>
<path d="M205.667 43.8136C205.667 49.6596 204.301 53.9917 201.567 56.8098C198.833 59.628 194.337 61.0392 188.079 61.0434C181.771 61.0434 177.252 59.6322 174.523 56.8098C171.793 53.9875 170.426 49.6554 170.422 43.8136C170.422 38.0472 171.789 33.8242 174.523 31.1444C177.257 28.4647 181.775 27.1227 188.079 27.1185C194.35 27.1185 198.847 28.4793 201.573 31.201C204.298 33.9227 205.663 38.1269 205.667 43.8136ZM192.738 43.7507C192.738 41.4693 192.41 39.8589 191.754 38.9195C191.097 37.9801 189.872 37.5084 188.079 37.5042C186.244 37.5042 184.99 37.976 184.317 38.9195C183.644 39.8631 183.316 41.4735 183.333 43.7507C183.333 46.074 183.661 47.7955 184.317 48.9152C184.973 50.0349 186.227 50.5948 188.079 50.5948C189.872 50.5948 191.099 50.0349 191.76 48.9152C192.42 47.7955 192.746 46.074 192.738 43.7507Z" fill="#EDDFD0"/>
<path d="M196.939 22.6145C196.852 22.6148 196.766 22.6021 196.682 22.5768L188.474 20.1297C188.334 20.0868 188.188 20.0656 188.042 20.0668C187.897 20.0656 187.753 20.0869 187.615 20.1297L179.408 22.5768C179.322 22.6016 179.233 22.6143 179.144 22.6145C178.905 22.6129 178.676 22.5169 178.507 22.3474C178.339 22.1778 178.243 21.9484 178.241 21.7087V18.6074C178.242 18.4151 178.303 18.2278 178.415 18.0721C178.528 17.9163 178.686 17.7999 178.868 17.7393L187.766 15.0847C187.934 15.0343 188.112 15.0343 188.28 15.0847L197.196 17.7645C197.379 17.8242 197.538 17.9404 197.651 18.0964C197.763 18.2523 197.824 18.44 197.824 18.6326V21.7338C197.817 21.9664 197.722 22.1877 197.557 22.3517C197.392 22.5156 197.171 22.6097 196.939 22.6145Z" fill="#EDDFD0"/>
</g>
<defs>
<clipPath id="clip0">
<rect width="260" height="96" fill="white"/>
</clipPath>
</defs>
</svg>
