<svg width="37" height="37" viewBox="0 0 37 37" fill="none" xmlns="http://www.w3.org/2000/svg">
<path fill-rule="evenodd" clip-rule="evenodd" d="M8.96972 34.458C11.7727 36.1527 15.1364 37 18.5 37C28.8712 37 37 28.5267 37 18.6412C37 13.5573 35.3182 9.03817 31.6742 5.36641C28.0303 1.9771 23.5455 0 18.5 0C8.40911 0 0 8.47328 0 18.6412C0 22.0305 0.840935 25.4198 2.80305 28.5267L3.36366 29.374L1.40151 36.1527L8.40911 34.1756L8.96972 34.458ZM24.6667 21.1832C25.2273 21.1832 28.0303 22.5954 28.5909 22.8779C28.6781 22.9219 28.7655 22.9589 28.8519 22.9956C29.3194 23.1945 29.7559 23.3803 29.9924 24.5725C30.2727 24.5725 30.2727 25.7023 29.7121 27.1145C29.4318 28.2443 27.1894 29.6565 26.0682 29.6565C25.8781 29.6565 25.6962 29.6726 25.502 29.6901C24.5495 29.7748 23.2988 29.8864 19.3409 28.2443C14.4286 26.2644 11.0229 21.4654 10.0665 20.1178C9.93144 19.9275 9.84538 19.806 9.81063 19.771C9.76297 19.675 9.66627 19.5213 9.53901 19.3188C8.91898 18.3322 7.5682 16.1831 7.5682 13.8397C7.5682 11.0153 8.96972 9.60305 9.53032 9.03817C10.0909 8.47328 10.6515 8.47328 10.9318 8.47328H12.053C12.3334 8.47328 12.894 8.47328 13.1743 9.32061C13.7349 10.4504 14.8561 13.2748 14.8561 13.5573C14.8561 13.6513 14.8872 13.7456 14.9183 13.8397C14.9808 14.0281 15.043 14.2162 14.8561 14.4046C14.7159 14.5458 14.6459 14.687 14.5758 14.8282C14.5057 14.9695 14.4356 15.1107 14.2955 15.2519L13.4546 16.0992C13.1743 16.3817 12.894 16.6641 13.1743 17.229C13.4546 17.7939 14.5758 19.771 16.2576 21.1832C18.1499 22.8516 19.6431 23.5145 20.3999 23.8503C20.5401 23.9124 20.655 23.9636 20.7424 24.0076C21.303 24.0076 21.5833 24.0076 21.8636 23.7252C22.0038 23.4427 22.3542 23.0191 22.7046 22.5954C23.0549 22.1718 23.4053 21.7481 23.5455 21.4656C23.8258 20.9008 24.1061 20.9008 24.6667 21.1832Z" fill="#520091"/>
</svg>
